<?xml version="1.0" standalone="no"?>
<!DOCTYPE svg PUBLIC "-//W3C//DTD SVG 20010904//EN"
 "http://www.w3.org/TR/2001/REC-SVG-20010904/DTD/svg10.dtd">
<svg version="1.0" xmlns="http://www.w3.org/2000/svg"
 width="840.000000pt" height="603.000000pt" viewBox="0 0 840.000000 603.000000"
 preserveAspectRatio="xMidYMid meet">

<g transform="translate(0.000000,603.000000) scale(0.100000,-0.100000)"
fill="#000000" stroke="none">
<path d="M5065 5596 c-264 -66 -306 -308 -123 -708 17 -38 35 -68 39 -68 5 0
9 18 9 40 0 94 44 244 87 296 84 102 410 116 1006 43 l98 -12 119 118 c66 66
116 122 112 126 -10 10 -545 114 -707 138 -296 43 -535 53 -640 27z"/>
<path d="M6348 5298 l-115 -122 36 -26 c93 -68 158 -168 202 -310 21 -65 24
-96 24 -230 0 -85 -2 -175 -5 -200 l-5 -45 53 -9 c29 -5 55 -6 58 -4 3 3 25
64 50 134 63 182 112 388 126 524 10 102 10 125 -5 185 -21 84 -53 128 -120
161 -54 28 -152 64 -172 64 -7 0 -64 -55 -127 -122z"/>
<path d="M5185 4886 c-16 -7 -41 -25 -53 -39 l-24 -25 21 -11 c17 -9 24 -8 40
8 31 31 93 46 132 32 27 -9 36 -9 48 4 12 12 13 17 3 27 -18 18 -131 21 -167
4z"/>
<path d="M6073 4870 c-25 -10 -27 -18 -14 -38 7 -11 16 -11 48 -2 35 11 45 10
84 -9 24 -11 52 -26 61 -33 26 -19 44 3 26 31 -30 48 -143 76 -205 51z"/>
<path d="M3260 4718 c3 -2 14 -10 24 -18 13 -10 17 -10 12 -2 -4 7 -1 12 8 12
9 0 16 -7 16 -15 0 -8 5 -15 12 -15 6 0 20 -7 30 -16 16 -16 18 -15 24 1 8 21
-13 37 -39 29 -11 -4 -17 -1 -15 8 2 9 -10 14 -37 16 -22 2 -38 2 -35 0z m115
-38 c3 -5 2 -10 -4 -10 -5 0 -13 5 -16 10 -3 6 -2 10 4 10 5 0 13 -4 16 -10z"/>
<path d="M3183 4697 c-18 -7 -38 -18 -45 -26 -8 -9 -9 -11 -1 -7 6 3 14 2 18
-4 4 -7 13 -6 28 1 11 7 32 15 46 20 18 5 20 8 8 8 -10 1 -15 6 -12 11 8 12
-1 12 -42 -3z m7 -17 c0 -5 -5 -10 -11 -10 -5 0 -7 5 -4 10 3 6 8 10 11 10 2
0 4 -4 4 -10z"/>
<path d="M5164 4686 c-43 -19 -67 -75 -72 -167 -5 -90 14 -141 62 -170 118
-72 237 68 192 225 -16 53 -69 116 -99 116 -7 0 -21 2 -32 5 -11 3 -34 -1 -51
-9z m108 -47 c25 -13 51 -74 43 -100 -10 -29 -33 -23 -48 14 -8 17 -21 38 -30
46 -26 21 -21 42 11 50 2 1 12 -4 24 -10z m46 -172 c3 -22 -1 -27 -17 -27 -15
0 -21 6 -21 23 0 46 33 49 38 4z"/>
<path d="M5980 4663 c-76 -28 -115 -183 -70 -280 50 -110 183 -107 232 5 28
62 21 156 -15 211 -36 54 -99 81 -147 64z m115 -74 c18 -22 25 -41 23 -62 -4
-44 -24 -44 -47 1 -11 21 -27 44 -35 51 -12 11 -14 17 -5 27 18 22 35 17 64
-17z m32 -163 c-8 -20 -36 -21 -43 -1 -4 8 0 22 7 31 11 13 14 13 27 0 8 -8
12 -22 9 -30z"/>
<path d="M2570 4635 c-8 -9 -8 -15 -2 -15 18 0 42 12 42 21 0 14 -26 10 -40
-6z"/>
<path d="M2408 4624 c-35 -18 -36 -27 -3 -14 16 6 25 6 25 -1 0 -6 6 -6 19 0
10 6 22 7 27 3 5 -4 2 1 -5 11 -16 21 -27 21 -63 1z"/>
<path d="M2528 4623 c7 -3 16 -2 19 1 4 3 -2 6 -13 5 -11 0 -14 -3 -6 -6z"/>
<path d="M2620 4620 c0 -5 5 -10 11 -10 5 0 7 5 4 10 -3 6 -8 10 -11 10 -2 0
-4 -4 -4 -10z"/>
<path d="M2380 4580 c-14 -10 -22 -21 -19 -24 3 -3 16 5 29 19 28 30 24 32
-10 5z"/>
<path d="M2337 4563 c-13 -13 -7 -33 11 -33 13 0 14 2 3 9 -7 5 -10 14 -7 20
8 12 3 15 -7 4z"/>
<path d="M3292 4458 c-30 -33 -42 -71 -42 -135 0 -121 79 -185 171 -137 83 43
77 226 -9 277 -43 24 -94 22 -120 -5z m137 -44 c23 -29 28 -69 9 -80 -7 -4
-16 0 -22 11 -6 10 -21 30 -34 46 -13 16 -21 33 -17 39 11 18 43 10 64 -16z
m21 -129 c0 -16 -6 -25 -15 -25 -9 0 -15 9 -15 25 0 16 6 25 15 25 9 0 15 -9
15 -25z"/>
<path d="M2602 4400 c-42 -26 -62 -73 -62 -145 0 -69 18 -113 59 -148 40 -33
101 -36 148 -7 101 61 85 241 -27 298 -55 27 -76 28 -118 2z m118 -35 c44 -23
67 -83 39 -101 -17 -10 -99 88 -87 104 13 15 13 15 48 -3z m56 -140 c4 -8 4
-22 0 -30 -7 -19 -36 -8 -36 14 0 32 26 43 36 16z"/>
<path d="M5977 3948 c10 -83 -39 -137 -110 -124 -45 8 -82 38 -107 84 -17 33
-19 34 -20 13 0 -35 75 -106 123 -115 71 -13 132 41 132 119 0 24 -5 49 -11
55 -9 9 -10 1 -7 -32z"/>
<path d="M2860 3725 c0 -58 25 -85 78 -85 40 1 68 19 97 63 13 21 15 31 6 40
-8 8 -11 7 -11 -7 0 -10 -16 -34 -35 -53 -29 -29 -40 -34 -63 -29 -41 10 -65
44 -59 83 3 18 2 33 -4 33 -5 0 -9 -20 -9 -45z"/>
<path d="M2850 3216 c0 -26 13 -40 48 -50 30 -10 28 5 -8 43 -36 37 -40 38
-40 7z"/>
<path d="M2545 3177 c-18 -15 -24 -28 -20 -40 10 -25 23 -21 45 16 33 53 21
64 -25 24z"/>
<path d="M5724 3082 c-15 -23 -7 -73 13 -89 21 -16 2 -130 -112 -681 -14 -68
-25 -136 -25 -151 l0 -28 -122 -12 c-67 -6 -124 -14 -127 -17 -5 -5 78 -956
84 -963 13 -13 81 -15 149 -4 45 6 206 30 359 52 153 22 285 45 293 52 9 7 24
30 35 51 18 34 18 39 4 45 -10 3 -30 -4 -47 -17 -20 -15 -33 -19 -40 -12 -20
20 -2 47 57 87 71 49 84 82 36 91 -18 4 -33 10 -36 14 -2 3 2 31 10 61 29 109
56 334 58 486 1 83 0 153 -3 156 -3 2 -81 -4 -175 -14 -93 -10 -216 -21 -271
-24 l-101 -6 -6 31 c-27 132 -30 250 -14 495 10 138 17 260 17 273 0 13 4 20
10 17 5 -3 21 2 36 11 l26 17 -44 21 c-32 16 -44 28 -48 49 -5 25 -6 26 -16 9z"/>
<path d="M2870 2953 c-27 -61 -26 -89 5 -109 l25 -16 -4 -199 -4 -199 82 -49
c117 -71 120 -72 112 -30 -8 44 -110 358 -138 425 l-21 52 22 44 c30 63 27 79
-19 105 l-40 21 -20 -45z"/>
<path d="M2140 2418 c-8 -21 -65 -907 -58 -913 2 -2 21 -6 43 -9 l40 -7 1 378
c1 208 6 419 11 468 7 63 6 92 -1 97 -18 12 -26 9 -36 -14z"/>
<path d="M3265 2324 c16 -96 7 -87 113 -122 115 -37 218 -62 226 -54 3 3 6 47
6 98 l0 92 -42 5 c-24 4 -103 9 -176 13 l-133 7 6 -39z"/>
<path d="M6785 2255 c-5 -2 -44 -6 -86 -10 l-76 -6 0 -222 c0 -190 -3 -240
-23 -347 -23 -130 -41 -189 -65 -227 -13 -19 -19 -20 -47 -12 -44 12 -52 0
-32 -50 11 -29 14 -54 10 -83 -6 -37 -5 -40 13 -35 10 2 112 17 225 33 l207
28 -6 61 c-86 881 -86 880 -120 870z"/>
<path d="M2900 1984 c0 -8 119 -137 135 -147 21 -12 43 2 54 35 6 17 11 32 11
33 0 2 -28 13 -62 25 -35 13 -80 32 -100 42 -21 10 -38 16 -38 12z"/>
<path d="M3323 1793 c16 -121 18 -201 7 -248 -7 -27 -14 -68 -17 -90 -4 -36
-1 -41 23 -53 24 -10 30 -10 37 3 13 24 38 17 50 -14 10 -26 16 -30 61 -33 33
-3 56 0 65 8 14 13 26 138 32 344 l2 75 -124 27 c-68 15 -128 27 -133 28 -5 0
-6 -21 -3 -47z"/>
</g>
</svg>
