<?xml version="1.0" standalone="no"?>
<!DOCTYPE svg PUBLIC "-//W3C//DTD SVG 20010904//EN"
 "http://www.w3.org/TR/2001/REC-SVG-20010904/DTD/svg10.dtd">
<svg version="1.0" xmlns="http://www.w3.org/2000/svg"
 width="103.000000pt" height="103.000000pt" viewBox="0 0 103.000000 103.000000"
 preserveAspectRatio="xMidYMid meet">

<g transform="translate(0.000000,103.000000) scale(0.100000,-0.100000)"
fill="#000000" stroke="none">
<path d="M399 830 c-9 -167 -23 -182 -189 -197 l-85 -7 99 -7 c149 -10 172
-38 176 -214 1 -44 4 -72 7 -62 6 22 69 23 118 2 38 -15 55 -46 55 -98 0 -18
5 -39 10 -47 7 -11 10 -2 10 33 0 89 40 127 133 127 55 0 39 12 -30 21 -77 10
-95 31 -101 111 -5 67 -20 57 -21 -14 -1 -58 -36 -90 -105 -98 -32 -3 -60 -2
-63 3 -7 12 5 123 18 165 15 46 57 64 164 71 l90 6 -103 11 c-149 16 -156 24
-171 209 l-7 90 -5 -105z"/>
<path d="M736 578 c-8 -43 -28 -58 -83 -59 l-38 -1 44 -9 c53 -10 70 -25 81
-70 l8 -34 1 31 c1 44 20 62 76 72 l50 10 -41 1 c-51 1 -74 18 -83 61 l-7 35
-8 -37z"/>
</g>
</svg>
