<?xml version="1.0" standalone="no"?>
<!DOCTYPE svg PUBLIC "-//W3C//DTD SVG 20010904//EN"
 "http://www.w3.org/TR/2001/REC-SVG-20010904/DTD/svg10.dtd">
<svg version="1.0" xmlns="http://www.w3.org/2000/svg"
 width="512.000000pt" height="512.000000pt" viewBox="0 0 512.000000 512.000000"
 preserveAspectRatio="xMidYMid meet">

<g transform="translate(0.000000,512.000000) scale(0.100000,-0.100000)"
fill="#000000" stroke="none">
<path d="M1709 5036 c-74 -26 -146 -94 -181 -171 -17 -38 -23 -68 -23 -125 1
-96 34 -171 105 -232 l48 -41 -43 -63 c-85 -123 -117 -268 -89 -402 12 -61 85
-82 129 -37 23 22 25 32 24 102 -2 98 5 133 43 206 38 70 101 130 176 165 49
23 70 27 152 27 132 0 198 -31 295 -139 75 -84 100 -93 149 -55 96 75 -104
294 -313 343 -35 8 -65 16 -67 19 -2 2 1 29 7 59 28 137 -65 297 -198 342 -56
19 -164 20 -214 2z m187 -166 c46 -29 78 -98 69 -151 -14 -82 -98 -140 -181
-124 -51 9 -110 68 -120 119 -9 53 20 123 65 153 45 30 120 31 167 3z"/>
<path d="M3193 5034 c-131 -48 -221 -207 -194 -342 6 -30 9 -57 7 -59 -2 -3
-32 -11 -67 -19 -119 -28 -243 -112 -308 -211 -40 -59 -41 -104 -5 -132 49
-38 74 -29 149 55 97 108 163 139 295 139 82 0 103 -4 152 -27 75 -35 138 -95
175 -165 39 -75 45 -100 44 -201 -1 -75 2 -86 24 -108 24 -23 57 -30 90 -18
31 12 46 62 46 149 1 123 -32 223 -107 326 l-33 45 49 42 c71 61 104 135 105
232 0 120 -55 213 -164 278 -37 22 -59 26 -130 29 -59 2 -99 -2 -128 -13z
m198 -167 c44 -29 74 -100 65 -151 -15 -79 -101 -137 -182 -121 -54 10 -109
67 -119 123 -9 53 22 122 68 151 45 29 123 28 168 -2z"/>
<path d="M2365 4174 c-293 -44 -533 -145 -780 -328 -18 -14 -31 -10 -157 53
-168 85 -317 143 -468 183 -97 26 -134 31 -240 32 -117 1 -129 -1 -185 -27
-73 -34 -100 -59 -130 -117 -30 -60 -37 -113 -24 -190 26 -165 173 -404 376
-612 73 -75 100 -84 147 -47 19 15 26 30 26 55 0 28 -13 48 -73 116 -100 114
-147 173 -194 243 -86 128 -140 268 -127 330 31 151 349 117 766 -82 l137 -65
-66 -77 c-181 -211 -294 -442 -355 -721 -19 -90 -22 -134 -22 -310 0 -173 4
-221 22 -306 64 -297 201 -558 401 -767 155 -161 341 -294 511 -363 81 -33 76
-22 84 -205 9 -215 63 -486 122 -621 83 -189 184 -279 314 -279 150 -1 293
134 415 394 55 116 135 349 135 393 0 57 -77 95 -124 61 -9 -7 -37 -73 -62
-147 -92 -273 -210 -475 -306 -526 -36 -19 -88 -18 -117 2 -102 72 -202 402
-218 723 -6 117 -5 124 12 118 9 -4 56 -14 104 -23 756 -133 1502 307 1755
1035 63 181 79 281 80 496 1 105 -2 208 -6 230 l-7 40 114 74 c307 198 539
431 604 606 42 113 17 244 -59 308 -136 115 -383 135 -750 61 -146 -29 -170
-39 -189 -78 -12 -25 -11 -33 3 -62 20 -42 53 -51 126 -35 178 40 282 53 420
55 160 1 223 -13 280 -61 95 -80 -34 -290 -315 -512 -86 -68 -249 -181 -262
-181 -5 0 -21 38 -37 85 -175 515 -622 906 -1176 1030 -73 16 -432 30 -505 19z
m481 -178 c39 -9 102 -26 140 -39 l69 -22 1 -120 c0 -148 14 -184 93 -256 31
-28 59 -57 63 -64 4 -7 12 -76 18 -153 11 -150 28 -228 60 -292 80 -157 276
-219 390 -124 54 46 63 76 71 224 4 74 11 146 16 160 10 23 14 17 61 -80 42
-89 102 -252 102 -279 0 -13 -329 -173 -477 -232 l-131 -52 -47 41 c-138 122
-341 83 -427 -82 -31 -58 -31 -174 0 -232 65 -125 204 -183 333 -139 90 31
164 119 177 211 l7 47 135 53 c74 30 208 89 297 133 l162 80 7 -36 c4 -20 4
-104 1 -187 -9 -235 -64 -433 -175 -631 -76 -136 -210 -302 -303 -375 l-38
-31 -49 35 c-120 87 -220 111 -317 77 -32 -12 -71 -21 -86 -21 -14 0 -76 24
-137 54 -191 94 -308 117 -415 80 -96 -33 -177 -135 -177 -224 0 -90 52 -154
172 -213 29 -14 71 -45 93 -68 l40 -42 -100 7 c-88 6 -286 39 -306 52 -17 10
27 525 56 651 4 15 20 26 60 38 230 73 255 396 39 500 -55 27 -150 31 -213 10
-187 -62 -235 -321 -84 -455 l45 -39 -17 -103 c-21 -135 -45 -374 -45 -465 0
-52 -4 -73 -12 -73 -22 0 -180 90 -262 148 -97 69 -234 203 -303 297 -29 38
-51 71 -49 72 2 2 37 -13 80 -32 113 -53 191 -70 246 -55 63 17 106 65 120
136 30 144 -48 259 -255 374 -111 62 -168 110 -163 137 3 15 16 17 109 18 98
0 108 2 147 27 50 33 85 92 107 177 23 90 43 124 124 214 90 101 116 153 115
232 -1 74 -25 125 -88 183 -65 60 -124 84 -224 90 -95 5 -198 -9 -309 -43 -42
-13 -79 -23 -80 -21 -8 8 144 222 204 286 l69 73 79 -50 c116 -73 249 -167
369 -260 l104 -82 -14 -38 c-43 -121 25 -270 148 -323 134 -59 290 -3 354 126
27 55 27 183 0 238 -27 54 -80 105 -135 129 -57 25 -150 27 -205 3 -32 -13
-42 -14 -57 -4 -9 7 -64 50 -121 94 -95 75 -355 257 -382 268 -28 11 133 112
285 177 100 44 205 75 319 95 102 18 419 12 516 -10z m439 -173 c103 -63 207
-147 294 -237 93 -98 89 -83 45 -206 -22 -60 -28 -100 -33 -199 -7 -136 -13
-150 -66 -137 -44 11 -91 65 -109 125 -9 30 -20 113 -26 185 -14 188 -21 208
-101 289 -42 43 -69 79 -73 99 -8 42 -8 118 1 118 4 0 35 -17 68 -37z m-861
-597 c44 -18 66 -52 66 -101 0 -49 -22 -83 -66 -101 -107 -45 -201 91 -120
175 25 26 38 33 79 40 4 0 23 -5 41 -13z m-644 -68 c54 -28 84 -74 74 -114 -4
-15 -38 -63 -77 -106 -89 -102 -130 -171 -151 -255 -10 -38 -24 -79 -33 -92
-15 -23 -19 -24 -96 -18 -139 11 -212 -30 -237 -132 -29 -121 26 -200 211
-305 57 -32 120 -72 140 -87 44 -35 73 -91 65 -125 -8 -30 -25 -27 -146 27
-88 39 -174 66 -225 71 -27 3 -33 10 -58 73 -111 275 -127 620 -42 911 l15 52
92 37 c209 84 381 107 468 63z m1386 -572 c28 -28 34 -42 34 -76 0 -34 -6 -48
-34 -76 -38 -38 -77 -44 -126 -19 -32 17 -60 61 -60 95 0 33 28 78 58 94 47
26 90 20 128 -18z m-893 -296 c81 -64 35 -195 -68 -195 -79 0 -131 77 -101
149 8 19 24 41 37 50 33 23 100 21 132 -4z m374 -706 c26 -9 105 -43 174 -75
145 -68 192 -74 295 -37 l62 22 66 -33 c36 -18 66 -36 66 -41 0 -12 -183 -103
-270 -135 -82 -29 -223 -65 -255 -65 -12 0 -40 25 -73 65 -56 70 -148 143
-216 173 -56 25 -72 46 -60 79 20 57 118 78 211 47z"/>
<path d="M785 2792 c-109 -52 -229 -184 -264 -290 -14 -40 -15 -41 -40 -28
-124 64 -296 23 -384 -90 -121 -158 -68 -383 111 -471 48 -24 69 -28 137 -27
86 0 132 17 207 76 l37 29 44 -48 c85 -91 239 -162 349 -163 72 0 87 6 103 43
15 36 3 82 -25 97 -9 5 -48 14 -85 20 -92 15 -165 53 -225 116 -77 81 -94 128
-95 254 0 96 2 110 29 164 37 76 98 136 175 175 64 33 81 53 81 96 0 32 -41
75 -72 75 -13 0 -50 -13 -83 -28z m-360 -472 c42 -26 65 -70 65 -125 0 -56
-19 -96 -60 -125 -115 -82 -272 32 -231 169 13 45 46 78 98 97 43 15 84 10
128 -16z"/>
<path d="M4205 2795 c-26 -25 -32 -63 -15 -96 6 -10 38 -33 71 -50 77 -39 138
-99 175 -175 27 -54 29 -68 29 -164 -1 -126 -18 -173 -95 -254 -60 -63 -133
-101 -225 -116 -37 -6 -76 -15 -85 -20 -28 -15 -40 -61 -25 -97 16 -37 31 -43
103 -43 110 1 264 72 349 163 l44 48 37 -29 c75 -59 121 -76 207 -76 68 -1 89
3 137 27 232 114 236 439 6 556 -57 29 -77 34 -135 34 -43 0 -87 -8 -119 -20
l-52 -20 -13 40 c-35 105 -155 237 -264 289 -74 34 -99 35 -130 3z m649 -474
c49 -27 71 -66 71 -126 0 -151 -187 -210 -272 -85 -29 42 -31 122 -4 163 47
72 129 91 205 48z"/>
<path d="M1076 1707 c-31 -31 -64 -122 -76 -208 -11 -77 0 -186 25 -246 18
-43 18 -43 3 -43 -7 0 -40 -13 -73 -28 -70 -33 -118 -84 -153 -160 -21 -47
-24 -64 -20 -136 5 -93 27 -145 87 -205 63 -63 122 -86 221 -86 73 0 92 4 135
27 94 49 161 142 172 239 5 44 8 49 26 43 12 -4 62 -6 112 -6 71 0 107 6 163
25 79 28 164 78 187 110 21 30 19 69 -5 95 -31 33 -64 37 -102 13 -149 -95
-283 -110 -415 -46 -179 88 -261 323 -172 497 24 48 24 79 -2 112 -27 34 -80
36 -113 3z m95 -680 c94 -63 88 -206 -11 -257 -73 -37 -153 -17 -198 50 -20
29 -23 45 -20 93 4 46 10 63 34 88 36 39 57 48 115 48 32 1 56 -6 80 -22z"/>
<path d="M3931 1704 c-26 -33 -26 -64 -2 -112 88 -173 6 -409 -172 -497 -132
-64 -266 -49 -415 46 -73 47 -157 -37 -107 -108 23 -32 108 -82 186 -110 73
-25 198 -34 265 -19 31 7 31 7 37 -43 11 -97 78 -190 172 -239 43 -23 62 -27
135 -27 99 0 158 23 221 86 60 60 82 112 87 205 4 72 1 89 -20 136 -14 30 -39
70 -57 90 -30 35 -139 98 -168 98 -16 0 -16 0 2 43 25 60 36 169 25 246 -12
86 -45 177 -76 208 -33 33 -86 31 -113 -3z m206 -697 c32 -31 37 -43 41 -94 3
-49 0 -64 -20 -93 -46 -68 -131 -88 -202 -47 -97 55 -100 192 -6 255 29 20 44
23 93 20 51 -4 63 -9 94 -41z"/>
</g>
</svg>
