<?xml version="1.0" encoding="utf-8"?>
<!-- Generator: Adobe Illustrator 27.5.0, SVG Export Plug-In . SVG Version: 6.00 Build 0)  -->
<svg version="1.1" xmlns="http://www.w3.org/2000/svg" xmlns:xlink="http://www.w3.org/1999/xlink" x="0px" y="0px"
	 viewBox="0 0 1700 1270" style="enable-background:new 0 0 1700 1270;" xml:space="preserve">
<g id="background">
	<rect style="fill:#FFFFFF;" width="1700" height="1270"/>
</g>
<g id="shadow">
	<path style="opacity:0.04;fill:#272525;" d="M465.74,926.685c-28.84,0.708-57.678,1.246-86.506,1.38
		c-51.376,0.237-118.717-11.53-157.064,33.277c-19.308,22.56-12.954,67.551,17.674,75.526c8.667,2.257,17.998,2.01,26.129,5.852
		c8.132,3.843,14.574,14.306,10.061,22.297c-2.307,4.085-6.747,6.274-11.005,7.991c-26.924,10.853-56.766,12.23-83.551,23.445
		c-63.643,26.648-52.655,80.211,5.202,97.499c52.03,15.547,109.893,13.397,163.535,14.449
		c313.948,6.16,628.742,13.477,940.949-7.291c67.332-4.479,134.273-10.135,201.316-15.409c30.682-2.409,69.083-8.697,69.204-22.785
		c0.085-9.81-20.171-17.125-40.136-20.954c-34.965-6.705-80.61-12.539-74.002-34.476c2.411-8.002,13.791-15.344,29.6-19.096
		c12.209-2.897,26.254-3.663,39.491-5.407c13.237-1.744,26.808-4.947,32.375-10.654c14.988-15.371-22.757-24.519-49.325-25.921
		c-31.821-1.68-57.766-12.484-46.796-28.784c7.641-11.354,32.512-19.034,40.074-30.398c3.041-4.57,3.037-9.487,1.016-14.171
		c-20.197-46.803-125.711-42.79-165.032-46.294c-72.746-6.482-145.818-7.72-218.794-8.3c-165.541-1.316-331.087,0.882-496.594,4.297
		C564.307,923.773,515.021,925.476,465.74,926.685z"/>
</g>
<g id="object">
	<g>
		<polygon style="fill:#8DB0A3;" points="1361,514 1268,578 1208,548 1204,569 1277,628 1372,543 		"/>
		<polygon style="fill:#AECCDC;" points="894.374,495.936 949,461 934,376 964,367 1007,482 922,554 		"/>
		<polygon style="fill:#AECCDC;" points="791,520 727,493 743.987,358.081 708,352 670,514 799,595 805,589 		"/>
		<polygon style="fill:#A16652;" points="390,501 456,560 544,520 557,545 455.647,610.806 399,590 		"/>
		<g>
			<g>
				<polygon style="fill:#426362;" points="305.187,1082.192 303.928,1094.747 326.752,1110.38 340.053,1099.362 329.271,1085.268 
					306.447,1069.636 				"/>
				<polygon style="fill:#2E4661;" points="305.379,698.344 301.554,736.477 335.887,867.444 304.333,1077.984 327.719,1086.017 
					389.166,880.437 398.891,820.638 398.41,694.067 				"/>
			</g>
			<g>
				<polygon style="fill:#2E4661;" points="485.234,740.664 436.405,1093.45 414.052,1093.472 409.807,867.371 368.969,708.711 				
					"/>
				<polygon style="fill:#426362;" points="414.19,1103.353 438.375,1116 450.448,1103.318 438.35,1090.659 414.178,1090.683 				
					"/>
			</g>
		</g>
		<g>
			<g>
				<polygon style="fill:#414446;" points="763.669,722.914 766.956,818.803 807.853,1101.137 831.865,1100.195 840.66,920.019 
					864.429,704.019 				"/>
				<polygon style="fill:#426362;" points="832.123,1110.326 806.666,1124.327 793.175,1111.853 805.648,1098.361 831.614,1097.343 
									"/>
			</g>
			<g>
				<polygon style="fill:#414446;" points="938.331,722.914 935.044,818.803 894.147,1101.137 870.135,1100.195 861.34,920.019 
					837.571,704.019 				"/>
				<polygon style="fill:#426362;" points="869.877,1110.326 895.334,1124.327 908.825,1111.853 896.352,1098.361 870.386,1097.343 
									"/>
			</g>
			<g>
				<path style="fill:#EACDB0;" d="M832.66,507.411c7.472-0.509,14.944-1.018,22.416-1.527c0.256-5.967,0.035-11.955-0.661-17.887
					c6.276-1.992,13.551-5.044,14.833-11.503c0.404-2.034,0.115-4.135-0.175-6.188c-1.199-8.49-2.398-16.979-3.597-25.468
					c-0.415-2.936-0.859-5.959-2.37-8.51c-2.652-4.477-8.002-6.565-13.099-7.612c-13.007-2.673-27.343-0.279-37.746,7.973
					c-2.769,2.196-5.293,4.861-6.585,8.15c-1.992,5.071-0.795,10.77,0.426,16.08c1.127,4.901,2.254,9.803,3.38,14.705
					c1.296,5.638,3.22,12.06,8.544,14.323c2.827,1.202,6.214,0.98,8.754,2.708C831.258,495.701,830.434,502.474,832.66,507.411z"/>
				<path style="fill:#3A3029;" d="M759.784,420.87c-1.219-2.149-2.54-4.226-4.03-6.182c-3.226-4.237-7.248-7.908-9.805-12.58
					c-2.557-4.672-3.314-10.921,0.053-15.047c2.173-2.662,5.606-3.921,8.931-4.789c10.957-2.861,22.683-2.716,33.567,0.414
					c10.366,2.982,19.581,7.674,30.22,4.07c9.996-3.386,17.087-1.663,27.302,2.341c11.054,4.332,26.029,5.735,35.973,11.677
					c4.152,2.481,7.41,6.259,9.913,10.398c8.671,14.342,8.123,33.731-1.342,47.56c-2.124,3.103-4.637,5.921-7.27,8.605
					c-5.449,5.556-11.974,12.425-19.293,14.32c0.027-6.494,6.568-26.773,1.749-32.245c-7.648-8.683-25.62-6.29-35.495-4.515
					c-10.771,1.937-20.543,9.221-31.202,10.513c-7.67,0.93-17.298-3.114-23.669-7.26
					C767.526,443.032,764.234,428.711,759.784,420.87z"/>
			</g>
			<g>
				<path style="fill:#AECCDC;" d="M982.414,754.66c-0.888-8.094-1.87-14.83-2.122-17.243c-2.265-21.719-5.922-43.286-10.375-64.688
					c-3.991-19.177-8.633-38.228-13.511-57.219c-4.028-15.681-16.855-54.612-25.057-68.822
					c-20.396-35.339-37.715-41.023-93.3-44.239c-34.236-1.98-40.644,18.916-66.507,44.625c-2.55,2.535-1.336,16.406-1.687,20.129
					c-0.378,4.008-0.793,8.013-1.253,12.013l0.002,0.001c0,0-0.737,70.316-12.472,102.954
					c-11.727,32.615-48.516,103.241,0.017,99.968c28.114-2.961,55.893-12.65,83.937-14.542c20.581-1.389,41.39-0.905,61.871,0.98
					c13.691,1.191,27.734,3.358,40.302,8.61c11.991,5.01,20.982,13.026,33.157,18.232c1.153,0.493,2.415,0.998,3.662,0.734
					C985.732,794.742,984.282,771.695,982.414,754.66z"/>
			</g>
			<g>
				<polygon style="fill:#415B59;" points="884.15,484.887 927.904,532.172 793.071,555.404 768.96,525.335 				"/>
				<polygon style="fill:#426362;" points="817.502,498.718 848.401,506.372 902.056,536.994 919.724,753.754 832.758,747.89 
					839.231,564.591 769.784,510.056 				"/>
			</g>
		</g>
		<path style="fill:#A16652;" d="M386.93,498.918c-17.806-10.486-54.38,3.182-74.267,6.428c3.013,44.53,2.161,89.632-0.629,134.123
			c-2.411,38.446-12.64,77.212-13.778,115.398c-1.015,34.056-11.091,60.065-33.631,86.957c-3.512,4.19-7.473,9.532-5.395,14.605
			c1.253,3.059,4.368,4.869,7.348,6.278c29.42,13.913,63.728,10.264,95.88,5.575c24.414-3.56,48.765-7.549,73.038-11.964
			c31.624-5.752,66.301-15.261,90.336-38.113c1.518-1.443,3.095-3.243,2.887-5.334c-0.179-1.793-1.615-3.155-2.887-4.426
			c-23.171-23.149-28.065-66.891-36.759-97.002c-9.812-33.983-19.658-68.062-33.426-100.636c-8.931-21.13-19.5-41.562-31.564-61.06
			c-9.185-14.844-21.299-39.634-35.674-49.869C387.932,499.537,387.439,499.218,386.93,498.918z"/>
		<path style="fill:#EACDB0;" d="M340.151,491.121l-2.524-3.056c6.456,1.413,12.913,2.826,19.369,4.24
			c-1.34,3.009-0.338,11.676-2.273,13.398c-0.703,0.626-1.675,0.832-2.603,0.99c-3.346,0.569-11.904,2.3-14.439-0.197
			c-2.368-2.332-2.231-11.458-2.366-14.61C335.29,491.327,337.366,491.034,340.151,491.121z"/>
		<path style="fill:#4E4E4E;" d="M350.026,427.779c13.261,4.133,23.367,16.895,24.35,30.751c7.557-6.56,11.661-16.895,10.662-26.852
			c-0.999-9.957-7.074-19.271-15.784-24.199c-8.456,4.114-15.167,1.634-18.238,10.522L350.026,427.779z"/>
		<path style="fill:#EACDB0;" d="M354.953,497.693c10.737-3.112,18.771-12.669,22.326-23.267c3.555-10.598,3.183-22.132,1.49-33.182
			c-5.635-36.771-51.494-32.064-65.625-2.944C300.829,463.677,323.733,506.74,354.953,497.693z"/>
		<g>
			<g>
				<path style="fill:#6596C1;" d="M734.537,568.025c-24.987-26.235-67.344-32.814-101.728-16.876
					c-0.064,0.03-0.13,0.046-0.195,0.069c-10.384,5.879-18.26,14.937-20.048,27.187c-0.393,2.692-4.892,2.436-4.496-0.275
					c1.916-13.13,9.983-22.982,20.792-29.539c-19.859-34.761-63.643-53.68-105.63-42.583c-41.32,10.92-69.673,46.982-70.499,86.419
					c3.667,0.1,7.329,0.512,10.949,1.286c14.397,3.079,26.598,10.811,36.189,21.034c1.897,2.022-1.547,4.836-3.438,2.821
					c-3.156-3.364-6.664-6.441-10.491-9.133c-14.206-9.994-32.547-14.052-50.261-9.885c-17.897,4.21-35.623,16.894-45.417,31.474
					c-11.225,16.708-15.089,37.131-9.562,55.899c5.424,18.421,19.297,33.906,37.756,42.061c17.122,7.564,35.613,8.949,54.419,6.025
					c12.333-1.917,24.626-4.109,36.912-6.306c35.118-6.281,70.181-12.878,105.234-19.517c15.4-2.917,30.796-5.848,46.191-8.793
					c12.646-2.419,26.133-4.033,38.161-8.654c39.334-15.11,63.507-55.722,51.942-94.052
					C748.108,586.057,742.345,576.224,734.537,568.025z"/>
			</g>
			<path style="opacity:0.1;" d="M751.315,596.686c-3.207-10.629-8.97-20.462-16.779-28.661
				c-13.428-14.099-31.875-22.511-51.403-24.813c8.724,4.155,16.693,9.768,23.403,16.813c7.809,8.199,13.572,18.031,16.779,28.661
				c11.565,38.33-12.608,78.942-51.942,94.052c-12.028,4.621-25.515,6.235-38.161,8.654c-15.394,2.945-30.791,5.877-46.191,8.793
				c-35.053,6.639-70.116,13.235-105.234,19.517c-12.286,2.197-24.579,4.389-36.912,6.306c-9.774,1.519-19.461,1.862-28.918,0.792
				c0.827,0.404,1.652,0.81,2.499,1.184c17.122,7.565,35.613,8.949,54.419,6.025c12.333-1.918,24.626-4.109,36.912-6.306
				c35.118-6.282,70.181-12.879,105.234-19.517c15.4-2.916,30.796-5.848,46.191-8.793c12.646-2.419,26.133-4.033,38.161-8.654
				C738.707,675.628,762.88,635.016,751.315,596.686z"/>
		</g>
		<g>
			<g>
				<path style="fill:#6596C1;" d="M1018.586,251.389c-15.588-32.706-53.799-52.132-91.434-47.679
					c-0.07,0.008-0.138,0.003-0.207,0.005c-11.698,2.357-22,8.516-27.51,19.603c-1.21,2.436-5.407,0.793-4.188-1.66
					c5.905-11.883,16.636-18.737,28.948-21.607c-8.063-39.214-43.791-70.812-87.147-73.325c-42.667-2.473-80.83,22.982-93.88,60.206
					c3.454,1.236,6.806,2.766,10.006,4.628c12.726,7.404,21.916,18.548,27.852,31.246c1.174,2.511-2.974,4.115-4.144,1.611
					c-1.953-4.178-4.33-8.194-7.13-11.943c-10.393-13.917-26.563-23.478-44.694-25.027c-18.319-1.565-39.111,4.977-52.954,15.787
					c-15.864,12.388-25.889,30.596-26.473,50.153c-0.574,19.195,7.794,38.226,22.802,51.718
					c13.92,12.514,31.064,19.581,49.846,22.652c12.317,2.013,24.682,3.754,37.043,5.487c35.33,4.952,70.706,9.588,106.085,14.181
					c15.543,2.018,31.088,4.02,46.635,6.009c12.771,1.634,26.091,4.295,38.96,3.644c42.083-2.127,77.688-33.207,78.618-73.232
					C1025.877,272.747,1023.458,261.61,1018.586,251.389z"/>
			</g>
			<path style="opacity:0.1;" d="M1018.586,251.39c-7.813-16.393-21.311-29.448-37.569-37.833
				c5.914,6.111,10.881,13.095,14.569,20.833c4.871,10.221,7.29,21.358,7.032,32.458c-0.93,40.025-36.535,71.105-78.618,73.232
				c-12.869,0.65-26.189-2.01-38.96-3.644c-15.547-1.989-31.092-3.992-46.635-6.009c-35.379-4.593-70.755-9.229-106.085-14.181
				c-12.36-1.732-24.725-3.473-37.043-5.486c-11.06-1.808-21.544-5.015-31.143-9.891c1.37,1.46,2.791,2.885,4.297,4.239
				c13.92,12.515,31.064,19.582,49.846,22.652c12.317,2.013,24.682,3.754,37.043,5.486c35.33,4.953,70.706,9.588,106.085,14.181
				c15.543,2.018,31.088,4.02,46.635,6.009c12.771,1.634,26.091,4.294,38.96,3.644c42.083-2.127,77.688-33.207,78.618-73.232
				C1025.877,272.748,1023.458,261.61,1018.586,251.39z"/>
		</g>
		<polygon style="fill:#AD6E58;" points="311,540 385,643 500,660 500,685 385,698 340,688 293,594 		"/>
		<path style="fill:#4E4E4E;" d="M314.602,741.342c6.984-4.063,7.425-13.699,10.048-21.341c2.622-7.642,13.478-14.221,17.939-7.486
			c11.653-3.187,19.073-15.303,20.521-27.297c1.448-11.994-1.858-23.997-5.131-35.626c-7.254-25.769-13.796-51.873-21.795-77.42
			c-7.561-24.15-8.573-49.819-9.747-74.676c-0.589-12.457,3.87-24.73,10.392-35.359c6.522-10.629,15.052-19.855,23.453-29.073
			c3.494-3.834,7.109-7.934,8.18-13.009c1.184-5.613-1.059-11.541-4.759-15.925c-5.694-6.747-12.454-10.105-21.058-10.316
			c-30.203-0.739-52.919,17.114-61.504,46.603c-7.259,24.932-3.866,51.514-2.262,77.432c2.412,38.972-5.607,84.017-28.481,116.124
			c-9.321,13.083-19.503,26.209-23.3,41.818c-3.798,15.608,0.869,34.657,15.137,42.036c5.575,2.883,12.196,3.824,17.048,7.805
			c5.098,4.182,5.479,11.358,0.874,15.822c6.589,11.485,13.931,3.125,22.269,0.935C292.595,739.72,305.667,746.54,314.602,741.342z"
			/>
		<polygon style="fill:#EACDB0;" points="499.794,662.789 521.57,658.945 544.128,668.063 541.087,681.729 520.369,687.363 
			500,682.831 		"/>
		<polygon style="fill:#EACDB0;" points="936.177,375.583 924,356 924,334 932,337 936.177,352.062 958,356 958.769,368.737 		"/>
		<polygon style="fill:#EACDB0;" points="713.932,352.585 716.479,327 741.522,328.621 752,312.179 757,320.179 750,341.179 
			735.466,356.174 		"/>
		<g>
			<g>
				<polygon style="fill:#2E4661;" points="1372.036,759.828 1372.036,790.838 1330.689,925.216 1341.026,1064.763 
					1315.184,1069.932 1273.837,899.374 1275.418,849.194 1294.51,746.851 				"/>
				<polygon style="fill:#2E4661;" points="1339.237,796.545 1380.783,1080.807 1399.667,1080.807 1411.594,925.755 
					1437.437,770.703 				"/>
				<polygon style="fill:#A16652;" points="1319.462,1073.476 1299.735,1094.354 1305.434,1104.937 1346.138,1085.399 
					1338.641,1069.932 				"/>
				<polygon style="fill:#A16652;" points="1381.133,1087.434 1356.815,1102.722 1359.689,1114.393 1403.984,1105.644 
					1400.589,1088.794 				"/>
			</g>
			<path style="fill:#84A599;" d="M1444.211,517.401l-59.848-22.192c0,0-64.445,44.707-110.433,122.608
				c-45.988,77.901-23.319,209.884-23.319,209.884s174.815,9.381,203.438,11.134l-9.841-182.341L1444.211,517.401z"/>
			<g>
				<path style="fill:#EBCEB1;" d="M1425.371,490.515c3.644-3.689,5.716-8.751,6.708-13.877c2.128-10.998-0.895-23.361-9.325-30.342
					c-12.965-10.737-33.244-5.92-47.465-14.853c-3.463,5.819-6.919,11.752-8.76,18.284c-3.93,13.944,0.49,29.881,10.94,39.448
					c10.45,9.567,26.422,12.299,39.533,6.761C1420.068,494.639,1423.006,492.909,1425.371,490.515z"/>
				<polygon style="fill:#59595B;" points="1376.658,437.888 1425.298,456.707 1415.65,496.366 1434.007,492.962 1457.666,432.241 
					1393.828,396.619 1357.172,398.199 1349.642,415.264 1365.722,445.347 				"/>
				<path style="fill:#EBCEB1;" d="M1403.969,494.747c0.036,5.311,0.719,10.616,2.029,15.763c-8.21-1.004-16.42-2.009-24.63-3.013
					c0.699-5.785,1.399-11.571,2.098-17.357c5.864,1.531,11.728,3.062,17.591,4.593L1403.969,494.747z"/>
			</g>
		</g>
		<g>
			<g>
				<path style="fill:#6596C1;" d="M1331.67,641.325c-10.048-34.81-44.58-60.205-82.438-61.947c-0.07-0.003-0.136-0.02-0.205-0.029
					c-11.925,0.419-23.094,4.816-30.337,14.856c-1.591,2.206-5.464-0.099-3.861-2.321c7.763-10.762,19.468-15.774,32.083-16.599
					c-1.562-40.004-31.66-77.004-74.027-86.551c-41.693-9.396-83.495,9.497-102.44,44.096c3.206,1.782,6.264,3.839,9.118,6.197
					c11.348,9.38,18.599,21.873,22.385,35.369c0.749,2.669-3.605,3.575-4.352,0.914c-1.246-4.441-2.937-8.79-5.088-12.946
					c-7.985-15.425-22.38-27.494-40.016-31.978c-17.819-4.531-39.399-1.466-54.819,6.943c-17.672,9.636-30.53,25.966-34.296,45.166
					c-3.695,18.844,1.458,38.985,14.065,54.744c11.693,14.616,27.456,24.384,45.486,30.475c11.824,3.995,23.74,7.728,35.653,11.452
					c34.05,10.646,68.197,20.987,102.354,31.286c15.006,4.525,30.017,9.034,45.031,13.532c12.333,3.694,25.042,8.491,37.844,9.947
					c41.867,4.762,82.063-20.097,89.505-59.435C1335.381,663.586,1334.81,652.203,1331.67,641.325z"/>
			</g>
			<path style="opacity:0.1;" d="M1331.67,641.325c-5.204-18.027-16.984-33.518-32.382-44.518
				c5.036,7.148,8.938,15.051,11.382,23.518c3.14,10.878,3.711,22.261,1.647,33.17c-7.443,39.338-47.639,64.198-89.505,59.435
				c-12.803-1.456-25.511-6.253-37.844-9.947c-15.014-4.497-30.025-9.007-45.031-13.532c-34.157-10.299-68.303-20.64-102.354-31.287
				c-11.912-3.725-23.828-7.458-35.653-11.452c-10.012-3.382-19.32-7.903-27.625-13.753c0.995,1.454,2.027,2.888,3.139,4.278
				c11.693,14.617,27.456,24.384,45.486,30.475c11.824,3.995,23.74,7.727,35.653,11.452c34.05,10.646,68.197,20.987,102.354,31.287
				c15.006,4.524,30.017,9.034,45.031,13.532c12.333,3.694,25.042,8.491,37.844,9.947c41.867,4.763,82.063-20.097,89.505-59.435
				C1335.381,663.585,1334.81,652.203,1331.67,641.325z"/>
		</g>
		<polygon style="fill:#EACDB0;" points="1224.003,624.355 1197.498,615.153 1174.7,627.573 1177.387,639.268 1202.569,641.691 
			1221.326,639.547 		"/>
		<g>
			<path style="fill:#EFCB55;" d="M625.845,308.649l-22.183-20.197c-37.264,40.825-63.247,89.46-76.352,142.092l29.174,7.03
				C568.421,389.823,592.025,345.699,625.845,308.649z"/>
			<polygon style="fill:#EFCB55;" points="629.942,276.589 569.193,302.337 621.865,342.074 			"/>
		</g>
		<g>
			<path style="fill:#EFCB55;" d="M1132.892,412.446l28.319-9.901c-18.175-52.201-48.588-98.197-88.644-134.766l-20.065,22.315
				C1088.821,323.315,1116.398,365.071,1132.892,412.446z"/>
			<polygon style="fill:#EFCB55;" points="1159.14,431.306 1165.401,365.622 1105.387,393.042 			"/>
		</g>
		<g>
			<g>
				<polygon style="fill:#EFCB55;" points="660.918,769.212 697.806,823.918 726.739,764.619 				"/>
			</g>
			<g>
				<path style="fill:#EFCB55;" d="M871.603,811.28c-53.326,2.592-105.193-8.749-151.447-32.495l-20.812,22.939
					c52.649,28.691,112.303,42.505,173.716,39.52c68.238-3.317,132.3-27.069,185.281-67.934l-19.358-22.96
					C991.021,786.995,933.181,808.287,871.603,811.28z"/>
			</g>
		</g>
		<polygon style="fill:#8DB0A3;" points="1431.997,518.415 1332.103,619.638 1219.091,618.45 1219.357,644.468 1335.944,660.762 
			1362.329,647.501 1444.074,586.782 1443.781,525.685 		"/>
	</g>
</g>
</svg>
