<?xml version="1.0" standalone="no"?>
<!DOCTYPE svg PUBLIC "-//W3C//DTD SVG 20010904//EN"
 "http://www.w3.org/TR/2001/REC-SVG-20010904/DTD/svg10.dtd">
<svg version="1.0" xmlns="http://www.w3.org/2000/svg"
 width="225.000000pt" height="225.000000pt" viewBox="0 0 225.000000 225.000000"
 preserveAspectRatio="xMidYMid meet">

<g transform="translate(0.000000,225.000000) scale(0.100000,-0.100000)"
fill="#000000" stroke="none">
<path d="M405 2146 c-128 -59 -144 -284 -25 -363 55 -36 108 -40 163 -14 67
32 101 87 105 171 5 84 -19 144 -73 185 -43 34 -122 44 -170 21z"/>
<path d="M297 1670 c-21 -4 -44 -13 -51 -21 -19 -20 -246 -575 -246 -600 0
-11 13 -34 29 -50 38 -37 82 -39 116 -4 14 13 25 22 25 19 0 -2 -11 -56 -25
-120 -14 -64 -25 -120 -25 -125 0 -6 11 -21 25 -34 18 -18 35 -25 65 -25 l40
0 0 -281 0 -281 29 -29 c41 -41 101 -41 142 0 l29 29 0 281 0 281 25 0 25 0 0
-281 0 -281 29 -29 c41 -41 101 -41 142 0 l29 29 0 281 0 281 38 0 c21 0 47 7
58 15 17 13 1 14 -149 15 -184 0 -204 5 -251 60 -14 18 -29 42 -32 56 -5 18
-13 24 -34 24 -51 0 -60 20 -60 136 l0 104 -40 0 c-43 0 -46 4 -30 44 9 24 14
26 75 26 l65 0 0 245 c0 135 -1 244 -2 244 -2 -1 -20 -5 -41 -9z"/>
<path d="M412 1593 l3 -88 60 0 60 0 3 88 3 87 -66 0 -66 0 3 -87z"/>
<path d="M606 1672 c-3 -3 -6 -113 -6 -244 l0 -238 69 0 c74 0 75 0 85 -42 6
-27 5 -28 -34 -28 -38 0 -40 -2 -40 -30 l0 -30 135 0 c74 0 135 2 135 4 0 7
-221 539 -236 568 -13 25 -23 30 -86 43 -9 1 -19 0 -22 -3z"/>
<path d="M1629 1627 c-46 -31 -61 -63 -55 -117 3 -35 11 -51 40 -77 30 -27 44
-33 82 -33 41 0 51 5 85 39 32 32 39 46 39 77 0 22 -6 50 -13 64 -17 34 -74
70 -112 70 -18 0 -47 -10 -66 -23z"/>
<path d="M1479 1403 c-54 -33 -74 -107 -46 -163 17 -34 74 -70 111 -70 41 0
91 32 112 71 40 79 -20 179 -108 179 -24 0 -55 -8 -69 -17z"/>
<path d="M1764 1387 c-72 -66 -50 -174 42 -206 77 -27 152 20 161 101 13 118
-116 185 -203 105z"/>
<path d="M1331 1182 c-37 -20 -71 -73 -71 -110 0 -12 7 -38 14 -57 l15 -35
-403 0 -403 0 -20 -22 c-30 -34 -34 -55 -19 -93 11 -26 24 -36 53 -45 27 -8
279 -10 870 -8 l832 3 23 23 c16 16 23 34 23 63 0 55 -29 79 -96 79 -27 0 -49
2 -49 3 0 2 7 18 16 36 34 68 -15 162 -92 177 -81 15 -160 -53 -151 -131 3
-22 8 -50 12 -62 7 -22 5 -23 -40 -23 -41 0 -46 2 -39 18 4 9 9 40 12 68 3 43
0 55 -23 82 -54 64 -146 64 -200 0 -23 -27 -26 -39 -23 -82 3 -28 8 -59 12
-68 7 -16 2 -18 -43 -18 l-52 0 16 30 c31 61 6 139 -55 172 -44 23 -76 23
-119 0z"/>
<path d="M1320 415 c293 -292 329 -325 358 -325 42 0 72 30 72 73 0 29 -27 59
-273 305 l-272 272 -105 0 -105 0 325 -325z"/>
<path d="M1435 700 l-39 -40 52 -53 52 -52 92 93 93 92 -106 0 -105 0 -39 -40z"/>
<path d="M1052 317 c-132 -134 -140 -151 -101 -201 14 -18 30 -26 52 -26 28 0
49 17 157 125 l124 125 -49 50 c-27 27 -52 50 -55 50 -3 0 -61 -56 -128 -123z"/>
</g>
</svg>
