<?xml version="1.0" standalone="no"?>
<!DOCTYPE svg PUBLIC "-//W3C//DTD SVG 20010904//EN"
 "http://www.w3.org/TR/2001/REC-SVG-20010904/DTD/svg10.dtd">
<svg version="1.0" xmlns="http://www.w3.org/2000/svg"
 width="225.000000pt" height="225.000000pt" viewBox="0 0 225.000000 225.000000"
 preserveAspectRatio="xMidYMid meet">

<g transform="translate(0.000000,225.000000) scale(0.100000,-0.100000)"
fill="#000000" stroke="none">
<path d="M750 1905 l0 -25 175 0 175 0 0 25 0 25 -175 0 -175 0 0 -25z"/>
<path d="M1180 1904 c0 -24 2 -25 47 -22 40 3 47 6 48 26 2 20 -3 22 -47 22
-45 0 -48 -2 -48 -26z"/>
<path d="M1330 1905 l0 -25 100 0 100 0 0 25 0 25 -100 0 -100 0 0 -25z"/>
<path d="M750 1806 c0 -32 44 -31 48 2 3 18 -1 22 -22 22 -21 0 -26 -5 -26
-24z"/>
<path d="M850 1804 c0 -21 4 -25 23 -22 14 2 23 11 25 26 3 18 -1 22 -22 22
-21 0 -26 -5 -26 -26z"/>
<path d="M950 1804 c0 -21 4 -25 23 -22 14 2 23 11 25 26 3 18 -1 22 -22 22
-21 0 -26 -5 -26 -26z"/>
<path d="M1050 1804 c0 -21 4 -25 23 -22 14 2 23 11 25 26 3 18 -1 22 -22 22
-21 0 -26 -5 -26 -26z"/>
<path d="M1180 1805 l0 -25 175 0 175 0 0 25 0 25 -175 0 -175 0 0 -25z"/>
<path d="M750 1705 l0 -25 175 0 175 0 0 25 0 25 -175 0 -175 0 0 -25z"/>
<path d="M1180 1705 l0 -25 175 0 175 0 0 25 0 25 -175 0 -175 0 0 -25z"/>
<path d="M750 1605 l0 -25 125 0 125 0 0 25 0 25 -125 0 -125 0 0 -25z"/>
<path d="M1180 1605 l0 -25 100 0 100 0 0 25 0 25 -100 0 -100 0 0 -25z"/>
<path d="M1430 1605 c0 -20 5 -25 25 -25 20 0 25 5 25 25 0 20 -5 25 -25 25
-20 0 -25 -5 -25 -25z"/>
<path d="M534 1591 c-57 -35 -76 -109 -49 -196 5 -17 -3 -25 -52 -47 -32 -15
-70 -39 -83 -53 l-25 -27 -3 -253 -3 -253 27 -21 c15 -12 37 -21 50 -21 29 0
29 -2 44 -195 6 -82 13 -162 16 -177 l6 -28 133 0 134 0 5 43 c3 23 7 56 8 72
l3 30 190 0 190 0 3 -42 c2 -24 5 -43 8 -43 2 0 68 42 145 94 l141 94 -143 96
-144 96 -3 -45 -3 -45 -185 0 -184 0 0 25 c0 21 5 25 30 25 19 0 40 9 55 25
l25 24 0 237 c0 282 0 282 -108 336 -37 18 -68 33 -70 34 -1 1 4 14 13 30 45
86 -19 204 -110 204 -16 0 -44 -9 -61 -19z m91 -37 c21 -9 45 -56 45 -92 0
-38 -41 -82 -75 -82 -41 0 -75 41 -75 90 0 64 50 105 105 84z m96 -246 c103
-47 99 -34 99 -297 0 -127 -4 -232 -9 -235 -5 -4 -16 -3 -25 0 -14 5 -16 32
-16 205 l0 199 -25 0 -25 0 0 -202 c0 -112 -7 -284 -15 -383 -8 -99 -15 -190
-15 -202 0 -20 -5 -23 -35 -23 l-35 0 0 225 0 225 -25 0 -25 0 0 -225 0 -225
-33 0 -34 0 -13 132 c-7 73 -16 255 -19 403 l-6 270 -22 3 -23 3 0 -193 c0
-106 -4 -199 -9 -207 -5 -8 -16 -11 -25 -8 -14 6 -16 35 -16 240 0 266 -7 244
95 295 79 39 170 39 256 0z m536 -689 l75 -51 -73 -49 c-72 -47 -74 -48 -79
-26 -6 22 -7 22 -218 25 l-213 2 3 48 3 47 210 5 c210 5 210 5 209 28 0 12 1
22 3 22 2 0 38 -23 80 -51z"/>
<path d="M1615 1600 c-35 -14 -64 -49 -77 -91 -10 -35 -9 -49 4 -86 l16 -44
-69 -35 c-83 -41 -109 -77 -109 -146 l0 -48 -90 0 -90 0 0 46 c0 25 -4 44 -9
42 -18 -6 -281 -183 -281 -189 0 -3 65 -49 145 -102 l145 -97 0 50 0 50 90 0
90 0 0 -94 c0 -90 1 -96 26 -115 15 -12 40 -21 55 -21 25 0 29 -4 29 -27 0
-32 17 -243 26 -321 l6 -53 136 3 137 3 17 190 c9 105 17 195 17 201 1 6 11 9
24 7 13 -3 33 4 50 17 l27 21 0 243 c0 287 -1 289 -108 341 -54 25 -62 33 -56
50 16 47 16 113 -1 144 -29 56 -96 84 -150 61z m90 -65 c35 -34 35 -96 0 -130
-27 -28 -42 -30 -78 -14 -27 12 -47 47 -47 82 0 22 24 65 44 79 21 15 57 7 81
-17z m93 -234 c34 -17 66 -40 72 -50 14 -27 14 -468 0 -476 -6 -4 -18 -1 -26
6 -12 10 -15 45 -14 203 2 190 2 191 -20 191 -22 0 -22 -2 -21 -165 1 -95 -7
-263 -19 -395 -11 -126 -20 -233 -20 -237 0 -5 -16 -8 -35 -8 l-35 0 0 225 0
225 -25 0 -25 0 0 -225 0 -225 -33 0 -33 0 -17 218 c-10 119 -17 302 -17 405
l0 188 -22 -3 c-23 -3 -23 -5 -28 -203 -5 -192 -6 -200 -25 -200 -19 0 -20 8
-23 228 -1 153 1 234 9 248 6 12 43 36 81 54 62 28 80 32 142 30 57 -2 85 -9
134 -34z m-532 -201 l114 0 0 -50 0 -50 -115 0 -115 0 0 -25 c0 -14 -2 -25 -5
-25 -9 0 -145 93 -145 99 0 3 33 27 73 53 72 48 72 48 75 23 3 -25 3 -25 118
-25z"/>
<path d="M820 1505 l0 -25 140 0 140 0 0 25 0 25 -140 0 -140 0 0 -25z"/>
<path d="M1180 1505 l0 -25 100 0 100 0 0 25 0 25 -100 0 -100 0 0 -25z"/>
</g>
</svg>
