<?xml version="1.0" standalone="no"?>
<!DOCTYPE svg PUBLIC "-//W3C//DTD SVG 20010904//EN"
 "http://www.w3.org/TR/2001/REC-SVG-20010904/DTD/svg10.dtd">
<svg version="1.0" xmlns="http://www.w3.org/2000/svg"
 width="225.000000pt" height="225.000000pt" viewBox="0 0 225.000000 225.000000"
 preserveAspectRatio="xMidYMid meet">

<g transform="translate(0.000000,225.000000) scale(0.100000,-0.100000)"
fill="#000000" stroke="none">
<path d="M1718 2053 c12 -2 30 -2 40 0 9 3 -1 5 -23 4 -22 0 -30 -2 -17 -4z"/>
<path d="M1023 2030 c-162 -29 -318 -137 -400 -277 -56 -96 -70 -163 -97 -456
-19 -198 -30 -285 -41 -301 -9 -13 -40 -40 -69 -59 -74 -49 -106 -113 -106
-214 0 -87 20 -135 76 -181 53 -44 101 -52 303 -52 l181 0 0 -43 c0 -141 115
-257 255 -257 140 0 255 116 255 257 l0 43 181 0 c202 0 250 8 303 52 56 46
76 94 76 181 0 93 -32 164 -93 204 -22 16 -53 40 -68 56 -27 27 -28 31 -44
180 -6 56 -7 57 -38 57 -18 0 -49 4 -70 9 l-37 9 6 -67 c21 -226 39 -267 154
-343 58 -39 75 -120 36 -173 -14 -20 -26 -20 -661 -20 -635 0 -647 0 -661 20
-44 60 -23 132 54 186 60 41 95 86 111 144 6 22 22 159 36 305 30 332 46 381
157 487 97 91 207 130 340 120 l77 -6 25 56 c14 30 26 59 26 63 0 20 -188 34
-267 20z m217 -1586 c0 -39 -5 -51 -34 -80 -29 -29 -41 -34 -81 -34 -40 0 -52
5 -81 34 -29 29 -34 41 -34 80 l0 46 115 0 115 0 0 -46z"/>
<path d="M1574 2014 c-18 -14 -18 -14 6 -3 31 14 36 19 24 19 -6 0 -19 -7 -30
-16z"/>
<path d="M1860 2026 c0 -2 7 -7 16 -10 8 -3 12 -2 9 4 -6 10 -25 14 -25 6z"/>
<path d="M1505 1958 l-40 -43 43 40 c39 36 47 45 39 45 -2 0 -21 -19 -42 -42z"/>
<path d="M1955 1960 c21 -22 41 -40 44 -40 3 0 -13 18 -34 40 -21 22 -41 40
-44 40 -3 0 13 -18 34 -40z"/>
<path d="M2016 1877 c3 -10 9 -15 12 -12 3 3 0 11 -7 18 -10 9 -11 8 -5 -6z"/>
<path d="M1421 1814 c0 -11 3 -14 6 -6 3 7 2 16 -1 19 -3 4 -6 -2 -5 -13z"/>
<path d="M1413 1735 c0 -27 2 -38 4 -22 2 15 2 37 0 50 -2 12 -4 0 -4 -28z"/>
<path d="M2053 1735 c0 -22 2 -30 4 -17 2 12 2 30 0 40 -3 9 -5 -1 -4 -23z"/>
<path d="M1421 1654 c0 -11 3 -14 6 -6 3 7 2 16 -1 19 -3 4 -6 -2 -5 -13z"/>
<path d="M2041 1654 c0 -11 3 -14 6 -6 3 7 2 16 -1 19 -3 4 -6 -2 -5 -13z"/>
<path d="M2011 1583 c-10 -26 -10 -27 4 -9 8 11 15 23 15 28 0 15 -7 8 -19
-19z"/>
<path d="M1459 1562 c5 -10 18 -25 27 -33 11 -9 9 -2 -6 19 -26 35 -36 42 -21
14z"/>
<path d="M1955 1508 l-40 -43 43 40 c39 36 47 45 39 45 -2 0 -21 -19 -42 -42z"/>
<path d="M1520 1496 c0 -2 8 -10 18 -17 15 -13 16 -12 3 4 -13 16 -21 21 -21
13z"/>
<path d="M1880 1455 c-14 -8 -20 -14 -14 -15 5 0 19 7 30 15 24 18 16 19 -16
0z"/>
<path d="M1808 1423 c7 -3 16 -2 19 1 4 3 -2 6 -13 5 -11 0 -14 -3 -6 -6z"/>
<path d="M1713 1413 c15 -2 37 -2 50 0 12 2 0 4 -28 4 -27 0 -38 -2 -22 -4z"/>
</g>
</svg>
