<?xml version="1.0" standalone="no"?>
<!DOCTYPE svg PUBLIC "-//W3C//DTD SVG 20010904//EN"
 "http://www.w3.org/TR/2001/REC-SVG-20010904/DTD/svg10.dtd">
<svg version="1.0" xmlns="http://www.w3.org/2000/svg"
 width="225.000000pt" height="225.000000pt" viewBox="0 0 225.000000 225.000000"
 preserveAspectRatio="xMidYMid meet">

<g transform="translate(0.000000,225.000000) scale(0.100000,-0.100000)"
fill="#000000" stroke="none">
<path d="M805 2085 c-19 -18 -23 -29 -16 -46 11 -31 33 -43 64 -35 18 4 29 15
33 33 8 31 -4 53 -35 64 -17 7 -28 3 -46 -16z"/>
<path d="M1350 2097 c-49 -24 -30 -97 24 -97 31 0 48 22 44 56 -4 38 -36 57
-68 41z"/>
<path d="M1598 2099 c-27 -16 -23 -65 7 -85 23 -15 27 -15 50 0 60 39 4 121
-57 85z"/>
<path d="M2022 2099 c-30 -11 -39 -54 -17 -79 25 -28 61 -25 81 5 30 47 -10
94 -64 74z"/>
<path d="M420 2081 c-23 -44 -5 -81 40 -81 33 0 50 17 50 50 0 14 -5 31 -12
38 -19 19 -66 15 -78 -7z"/>
<path d="M616 2048 c-20 -28 -20 -43 0 -62 35 -35 94 -11 94 38 0 44 -68 61
-94 24z"/>
<path d="M198 2005 c-9 -21 -8 -28 7 -45 10 -11 26 -20 35 -20 9 0 25 9 35 20
27 30 7 70 -35 70 -23 0 -33 -6 -42 -25z"/>
<path d="M1127 2023 c-13 -12 -7 -60 8 -73 38 -31 96 27 65 65 -13 15 -61 21
-73 8z"/>
<path d="M1554 1975 c-48 -33 -84 -168 -60 -225 13 -32 12 -38 -9 -80 -13 -25
-31 -54 -39 -65 -16 -19 -16 -19 -5 6 9 21 8 37 -5 77 -10 28 -25 61 -35 74
-24 32 -71 125 -71 140 0 7 9 -5 19 -27 19 -43 82 -105 106 -105 26 0 16 22
-24 56 -47 41 -71 91 -50 105 11 6 11 13 3 26 -39 62 -158 -22 -166 -117 -4
-53 22 -45 39 12 19 67 30 67 32 0 7 -165 7 -166 -19 -207 l-25 -40 -12 55
c-9 40 -21 62 -45 84 -19 17 -27 25 -18 19 17 -14 40 -17 40 -7 0 3 -11 19
-25 36 -17 20 -25 42 -25 69 0 45 -26 56 -33 14 -4 -23 -4 -23 -3 2 1 21 6 28
21 28 16 0 21 -8 23 -37 3 -40 15 -50 26 -22 8 20 -13 64 -37 78 -27 17 -57
-24 -50 -67 3 -23 -3 -53 -21 -95 -14 -34 -26 -68 -26 -76 0 -15 74 -33 115
-28 16 1 20 -4 21 -26 1 -16 4 -41 8 -56 8 -34 37 -32 48 4 7 24 8 24 4 -2 -9
-74 65 14 99 117 6 18 8 16 20 -13 8 -18 17 -49 21 -70 8 -42 20 -62 40 -62 8
0 11 7 8 18 -5 16 -5 16 6 0 6 -10 19 -18 29 -18 23 0 73 55 102 111 11 23 23
39 25 36 3 -2 15 -35 27 -73 21 -65 24 -69 52 -69 39 0 42 17 20 123 -15 72
-21 85 -45 97 -67 35 -120 134 -90 171 15 17 52 15 56 -4 1 -7 0 -8 -3 -2 -6
13 -40 13 -48 -1 -12 -19 5 -78 32 -109 33 -40 82 -65 96 -51 7 7 -4 23 -36
54 -32 30 -47 51 -46 68 1 22 2 21 9 -6 8 -26 68 -90 77 -81 2 1 -6 33 -17 69
-29 94 -82 130 -136 92z m-221 -35 c-3 -12 -8 -19 -11 -16 -5 6 5 36 12 36 2
0 2 -9 -1 -20z m37 10 c0 -5 -2 -10 -4 -10 -3 0 -8 5 -11 10 -3 6 -1 10 4 10
6 0 11 -4 11 -10z m-233 -132 c-3 -8 -6 -5 -6 6 -1 11 2 17 5 13 3 -3 4 -12 1
-19z"/>
<path d="M411 1966 c-10 -12 -9 -14 7 -10 10 3 24 -1 31 -9 10 -12 9 -18 -4
-29 -55 -44 -57 -49 -52 -91 4 -27 2 -36 -4 -26 -20 32 -10 71 28 105 30 28
33 34 20 40 -41 15 -106 -70 -92 -119 21 -73 47 -101 58 -59 4 15 5 15 6 0 0
-9 -3 -20 -9 -23 -5 -3 -10 -15 -10 -27 0 -23 -49 -118 -61 -118 -4 0 -11 20
-14 45 -4 24 -21 66 -38 92 -35 54 -69 124 -64 130 3 2 10 -10 17 -27 15 -35
67 -83 82 -74 5 4 -3 19 -19 36 -20 21 -27 37 -25 59 4 31 -20 69 -43 69 -25
0 -47 -38 -40 -68 4 -21 -2 -49 -19 -93 -36 -88 -35 -93 24 -107 27 -6 56 -9
63 -6 10 4 16 -9 23 -48 10 -60 36 -77 54 -36 10 23 11 23 6 1 -3 -17 1 -23
14 -23 22 0 52 40 81 106 23 51 31 48 50 -19 9 -34 12 -37 26 -25 15 12 15 11
3 -8 -16 -26 -7 -54 16 -54 28 0 92 76 100 117 l7 37 18 -23 c10 -13 24 -42
31 -64 6 -23 17 -48 24 -56 17 -19 44 -6 44 21 0 15 3 19 8 10 9 -13 48 48 62
96 l7 27 17 -39 c9 -21 19 -56 22 -77 8 -47 32 -59 58 -27 l19 23 -7 -25 -7
-25 20 24 c12 13 21 31 21 42 0 37 19 28 27 -13 8 -39 11 -43 41 -45 29 -3 36
2 62 44 l30 47 -22 9 c-14 5 -24 3 -30 -5 -5 -7 -18 -28 -29 -45 -11 -18 -22
-33 -23 -33 -1 0 -1 13 2 29 2 17 -6 47 -23 80 -24 47 -24 51 -6 42 11 -6 28
-11 38 -11 14 0 12 5 -12 24 -20 16 -30 33 -30 52 0 35 -18 41 -46 13 -20 -20
-21 -28 -15 -98 3 -44 2 -82 -4 -91 -8 -12 -10 -11 -10 7 0 47 -41 133 -69
148 -30 15 -67 63 -57 73 3 3 6 1 6 -5 0 -16 48 -63 65 -63 23 0 18 19 -16 58
-28 32 -31 40 -25 79 5 39 4 44 -12 41 -12 -2 -19 -17 -23 -53 l-6 -50 -1 46
c-2 50 15 76 43 65 11 -4 14 -17 10 -53 -5 -45 -4 -46 6 -14 5 18 9 45 7 60
-2 22 -8 26 -33 26 -23 0 -33 -7 -44 -29 -21 -44 -25 -112 -11 -157 11 -33 11
-48 1 -82 -7 -23 -13 -55 -13 -72 1 -25 -2 -22 -20 23 -11 29 -28 58 -38 64
-17 11 -17 13 -2 24 14 10 12 16 -21 46 -23 23 -37 44 -36 59 0 21 1 21 8 5 6
-15 9 -11 19 19 19 63 -21 101 -61 57 -44 -48 -58 -133 -33 -193 12 -30 12
-39 -1 -69 l-14 -35 -33 71 c-19 39 -39 74 -45 78 -6 4 -11 22 -11 39 l0 32
23 -29 c17 -21 29 -27 42 -23 16 7 16 9 1 30 -20 27 -41 71 -53 112 -10 34
-42 45 -62 21z m236 -66 c1 -22 1 -22 -4 -2 -4 22 -33 32 -33 10 0 -6 -3 -9
-6 -5 -10 10 7 28 24 25 10 -2 18 -14 19 -28z m-419 3 c-10 -2 -18 -9 -18 -15
0 -6 -3 -9 -6 -5 -10 10 6 27 24 26 15 -1 15 -2 0 -6z m407 -134 c22 -23 24
-28 9 -19 -33 20 -54 64 -53 107 2 37 2 37 8 -9 5 -33 16 -57 36 -79z m346 22
c-8 -5 -12 -18 -8 -30 3 -12 1 -19 -4 -15 -17 10 -10 54 9 54 13 0 14 -2 3 -9z"/>
<path d="M1984 1959 c-19 -21 -19 -25 -14 -222 0 -38 -17 -80 -54 -130 -19
-26 -19 -28 -3 -44 26 -26 46 -8 89 76 l36 73 17 -59 c27 -92 34 -105 52 -101
10 2 19 12 22 23 6 34 -19 121 -52 176 -58 98 -62 114 -13 64 42 -44 76 -58
76 -31 0 7 -15 25 -34 39 -32 25 -66 81 -66 109 0 10 3 9 10 -2 8 -13 10 -13
10 2 0 50 -41 65 -76 27z m19 -14 c-3 -9 -8 -14 -10 -11 -3 3 -2 9 2 15 9 16
15 13 8 -4z m4 -47 c-3 -8 -6 -5 -6 6 -1 11 2 17 5 13 3 -3 4 -12 1 -19z"/>
<path d="M1826 1927 c-38 -27 2 -95 42 -71 24 16 28 55 6 71 -10 7 -21 13 -24
13 -3 0 -14 -6 -24 -13z"/>
<path d="M960 1895 c-26 -32 13 -81 48 -59 34 22 22 74 -18 74 -10 0 -23 -7
-30 -15z"/>
<path d="M1786 1818 c-31 -48 -46 -158 -21 -158 18 0 18 -4 4 -53 -5 -20 -7
-42 -4 -48 12 -18 35 11 41 52 4 22 10 39 15 39 5 0 15 -21 22 -47 14 -47 45
-69 39 -28 -2 11 -4 46 -4 78 -1 53 -4 59 -30 73 -15 8 -28 17 -28 20 0 2 13
-2 30 -11 35 -18 73 -20 68 -3 -3 7 -20 16 -38 21 -23 6 -30 11 -21 17 11 6
11 13 0 36 -18 37 -53 43 -73 12z m54 -8 c0 -5 -7 -7 -16 -3 -14 5 -16 1 -12
-20 3 -15 1 -24 -3 -21 -11 6 -12 38 -2 47 10 10 33 8 33 -3z"/>
<path d="M137 1619 c-29 -41 -30 -69 -3 -69 8 0 28 21 45 47 29 43 30 48 14
55 -27 10 -26 10 -56 -33z"/>
<path d="M40 1500 c0 -7 368 -10 1085 -10 717 0 1085 3 1085 10 0 7 -368 10
-1085 10 -717 0 -1085 -3 -1085 -10z"/>
<path d="M1012 1325 c1 -54 3 -65 5 -32 l4 48 112 -3 112 -3 6 -45 c5 -37 6
-32 7 33 2 55 -2 77 -10 78 -7 1 -36 2 -64 3 -46 1 -50 -1 -40 -16 6 -10 14
-18 18 -18 5 0 8 -4 8 -10 0 -14 -27 -12 -33 3 -4 9 -8 8 -17 -3 -9 -11 -13
-12 -17 -2 -2 6 -11 12 -18 12 -7 0 -16 -6 -19 -12 -5 -10 -7 -10 -12 0 -3 6
-12 12 -21 12 -17 0 -13 22 5 28 7 2 12 -3 12 -12 0 -21 13 -20 27 2 10 17 7
19 -28 18 l-39 0 2 -81z m184 60 c4 -8 10 -15 15 -15 5 0 9 7 9 15 0 8 5 15
10 15 6 0 10 -5 10 -11 0 -11 -25 -39 -35 -39 -10 0 -35 28 -35 39 0 16 20 13
26 -4z"/>
<path d="M1100 1385 c0 -8 5 -15 10 -15 6 0 10 7 10 15 0 8 -4 15 -10 15 -5 0
-10 -7 -10 -15z"/>
<path d="M1180 1251 c0 -12 -5 -21 -10 -21 -16 0 0 -82 20 -103 16 -18 17 -16
23 39 4 39 2 63 -6 73 -7 8 -11 17 -9 20 2 3 -1 7 -7 9 -6 2 -11 -6 -11 -17z"/>
<path d="M960 1245 c0 -9 5 -15 11 -13 6 2 11 8 11 13 0 5 -5 11 -11 13 -6 2
-11 -4 -11 -13z"/>
<path d="M1017 1233 c-4 -3 -7 -11 -7 -17 0 -6 5 -5 12 2 6 6 9 14 7 17 -3 3
-9 2 -12 -2z"/>
<path d="M1240 1236 c0 -8 175 -254 189 -266 3 -3 11 -14 17 -25 6 -11 22 -20
36 -20 24 -1 28 11 20 59 -1 4 -15 6 -31 4 -17 -2 -28 -1 -25 4 3 5 -34 55
-82 111 -108 127 -124 144 -124 133z"/>
<path d="M936 1204 c-9 -23 -7 -31 3 -15 6 9 9 -1 9 -28 1 -24 8 -48 17 -57 9
-9 17 -15 19 -13 2 2 6 32 9 67 l7 62 -29 0 c-17 0 -31 -6 -35 -16z"/>
<path d="M1082 1203 c2 -10 10 -18 18 -18 8 0 16 8 18 18 2 12 -3 17 -18 17
-15 0 -20 -5 -18 -17z"/>
<path d="M1060 1147 c0 -13 4 -27 9 -32 6 -6 12 -35 14 -65 3 -42 5 -50 11
-33 5 13 12 20 17 17 5 -3 9 17 9 44 0 35 4 52 15 56 29 11 4 36 -36 36 -34 0
-39 -3 -39 -23z"/>
<path d="M850 1145 c-15 -18 -5 -35 21 -35 12 0 19 7 19 19 0 24 -25 34 -40
16z"/>
<path d="M922 1128 c-15 -15 -16 -38 -2 -38 12 0 23 25 18 40 -2 7 -7 7 -16
-2z"/>
<path d="M1282 1101 c-20 -12 -10 -46 14 -49 25 -4 40 24 23 44 -13 16 -19 17
-37 5z"/>
<path d="M820 1085 c-10 -12 -10 -21 -1 -41 11 -25 6 -32 -76 -128 -123 -142
-114 -128 -94 -155 l18 -24 84 114 84 114 3 -38 c5 -58 22 -43 23 21 2 50 3
53 8 19 9 -55 26 -50 29 8 1 28 8 60 14 72 8 17 8 26 -2 38 -16 19 -74 19 -90
0z"/>
<path d="M971 1041 c-13 -23 10 -47 34 -37 20 7 19 42 -1 50 -22 8 -22 8 -33
-13z"/>
<path d="M1244 1026 c-17 -13 -18 -17 -5 -48 8 -18 17 -66 20 -107 8 -100 30
-110 33 -14 1 61 2 63 7 24 10 -73 31 -64 31 14 0 56 3 70 22 84 l21 18 -21
21 c-26 26 -78 29 -108 8z m13 -38 c-3 -8 -6 -5 -6 6 -1 11 2 17 5 13 3 -3 4
-12 1 -19z"/>
<path d="M932 978 c-18 -18 -15 -36 8 -43 18 -6 20 -15 20 -81 0 -59 3 -74 15
-74 12 0 15 13 15 57 0 87 10 57 11 -36 2 -89 13 -106 61 -98 13 2 17 2 10 0
-9 -4 -12 -34 -10 -126 3 -114 4 -122 23 -122 18 0 20 8 23 70 4 118 17 107
22 -20 4 -107 7 -120 24 -123 30 -6 36 16 36 132 0 88 -3 113 -17 128 -15 17
-15 21 0 55 9 21 18 47 20 58 4 17 5 17 6 -3 0 -13 -6 -37 -15 -53 -16 -32
-12 -65 6 -54 16 10 50 82 50 105 0 12 -11 32 -25 45 -21 21 -33 25 -88 25
-50 0 -70 -5 -91 -21 -14 -11 -26 -16 -26 -10 0 5 5 13 10 16 6 3 10 24 10 46
0 23 7 47 16 56 9 9 14 28 12 47 -3 30 -4 31 -58 34 -34 2 -60 -2 -68 -10z
m28 -18 c0 -5 -4 -10 -10 -10 -5 0 -10 5 -10 10 0 6 5 10 10 10 6 0 10 -4 10
-10z m77 -27 c-3 -10 -5 -4 -5 12 0 17 2 24 5 18 2 -7 2 -21 0 -30z m-46 -6
c-10 -9 -11 -8 -5 6 3 10 9 15 12 12 3 -3 0 -11 -7 -18z m74 -177 c3 -5 -1
-10 -9 -10 -9 0 -16 5 -16 10 0 6 4 10 9 10 6 0 13 -4 16 -10z m60 -14 c0 -11
-6 -20 -13 -22 -7 -1 -8 0 -2 3 18 9 11 31 -12 36 -20 5 -20 5 2 4 17 -2 25
-8 25 -21z"/>
<path d="M1082 928 c-15 -15 -15 -61 0 -76 7 -7 24 -12 38 -12 14 0 31 5 38
12 7 7 12 24 12 38 0 14 -5 31 -12 38 -15 15 -61 15 -76 0z"/>
<path d="M1395 890 c-15 -16 -15 -22 -5 -35 7 -8 24 -15 39 -16 14 0 20 -3 14
-6 -9 -3 -13 -29 -13 -79 0 -67 2 -74 19 -74 17 0 21 8 24 53 2 38 4 30 5 -31
2 -74 4 -83 20 -80 14 3 17 16 20 86 2 68 7 87 23 103 19 19 20 19 15 2 -9
-31 17 -54 52 -47 l32 6 -31 39 c-17 22 -35 37 -40 33 -5 -3 -9 5 -9 18 0 37
-19 48 -85 48 -49 0 -66 -4 -80 -20z m141 -44 c-3 -14 -10 -26 -14 -26 -10 0
-14 49 -6 62 11 18 27 -10 20 -36z m-91 24 c18 -8 17 -9 -7 -9 -16 -1 -28 4
-28 9 0 12 8 12 35 0z m35 -25 c0 -8 -4 -15 -10 -15 -5 0 -7 7 -4 15 4 8 8 15
10 15 2 0 4 -7 4 -15z"/>
<path d="M1522 860 c0 -14 2 -19 5 -12 2 6 2 18 0 25 -3 6 -5 1 -5 -13z"/>
<path d="M482 888 c-29 -29 -5 -88 36 -88 35 0 52 16 52 50 0 14 -5 31 -12 38
-15 15 -61 15 -76 0z"/>
<path d="M1624 855 c-15 -23 -15 -27 0 -50 30 -46 96 -26 96 29 0 46 -69 61
-96 21z"/>
<path d="M812 838 c-15 -15 -15 -61 0 -76 7 -7 24 -12 38 -12 14 0 31 5 38 12
7 7 12 24 12 38 0 14 -5 31 -12 38 -15 15 -61 15 -76 0z"/>
<path d="M418 765 c-38 -21 -46 -54 -18 -77 12 -10 31 -18 41 -18 17 0 19 -11
21 -142 3 -140 4 -143 26 -146 22 -3 22 -1 22 97 0 61 4 101 10 101 6 0 10
-46 10 -119 0 -103 2 -120 17 -125 34 -13 43 21 43 152 0 108 2 123 16 118 20
-8 44 49 44 103 0 58 -24 71 -125 71 -50 -1 -90 -6 -107 -15z m42 -40 c0 -9 9
-15 24 -15 33 0 53 -25 36 -45 -7 -8 -17 -15 -23 -15 -6 0 -3 6 8 13 24 18 11
37 -25 37 -45 0 -63 10 -49 26 15 18 29 18 29 -1z m158 -12 c2 -11 -4 -36 -12
-54 l-14 -34 -1 58 c-1 43 2 58 12 55 6 -3 13 -14 15 -25z"/>
<path d="M601 704 c0 -11 3 -14 6 -6 3 7 2 16 -1 19 -3 4 -6 -2 -5 -13z"/>
<path d="M1571 725 c-37 -42 -39 -62 -8 -76 17 -8 34 -6 67 5 38 13 42 13 26
0 -11 -7 -28 -14 -38 -14 -16 0 -18 -11 -18 -112 0 -120 6 -142 36 -136 16 3
20 15 25 88 l5 85 2 -110 c2 -118 9 -139 38 -133 17 3 19 15 22 136 1 72 6
132 11 132 4 0 6 -12 4 -27 -3 -23 25 -67 145 -233 l149 -205 77 -3 c42 -2 76
0 76 3 0 3 -94 117 -209 252 l-210 247 6 47 c5 39 2 50 -16 68 -17 17 -33 21
-90 21 -66 0 -70 -1 -100 -35z m160 -80 c-11 -26 -18 -52 -14 -59 4 -8 3 -8
-6 0 -10 9 -9 18 3 42 9 17 16 43 16 59 0 19 3 24 11 16 8 -8 5 -24 -10 -58z
m-111 39 c0 -2 -9 -4 -21 -4 -11 0 -18 4 -14 10 5 8 35 3 35 -6z m44 7 c4 -5
-3 -7 -14 -4 -23 6 -26 13 -6 13 8 0 17 -4 20 -9z"/>
<path d="M1330 730 c-11 -11 -20 -27 -20 -35 0 -18 35 -55 53 -55 24 0 57 31
57 54 0 26 -28 56 -53 56 -9 0 -26 -9 -37 -20z"/>
<path d="M759 711 c-22 -17 -24 -27 -24 -99 0 -84 5 -98 28 -89 11 4 12 16 7
54 -9 51 -3 103 11 103 5 0 10 -71 11 -157 3 -155 3 -158 26 -161 21 -3 22 -1
22 82 0 51 4 86 10 86 6 0 10 -47 10 -120 0 -103 2 -122 16 -127 34 -13 45 25
44 147 -2 97 2 122 19 160 28 60 27 105 -1 124 -34 24 -149 22 -179 -3z m162
-69 c-5 -16 -16 -43 -25 -60 -9 -18 -14 -38 -10 -45 5 -9 4 -9 -5 -1 -10 9 -8
20 8 52 12 23 21 53 21 67 0 14 4 24 9 20 6 -3 6 -17 2 -33z"/>
<path d="M1300 623 c-30 -11 -50 -37 -50 -65 0 -30 35 -108 48 -108 4 0 6 -55
4 -122 -3 -107 -1 -124 14 -135 34 -25 44 1 46 126 l2 116 5 -85 c6 -82 7 -85
31 -85 l25 0 0 123 c0 118 1 122 21 122 28 0 47 24 39 49 -3 11 -20 32 -36 46
-25 20 -41 25 -82 24 -29 0 -59 -3 -67 -6z m18 -130 c7 -12 12 -28 12 -35 0
-7 -9 7 -20 31 -11 24 -19 55 -19 70 1 22 2 20 8 -9 4 -19 13 -45 19 -57z
m127 67 c4 -6 -6 -10 -22 -9 -25 0 -26 1 -8 9 11 5 21 9 22 9 1 1 5 -3 8 -9z
m-48 -41 c11 0 13 -3 5 -6 -17 -7 -42 15 -41 36 0 11 3 9 9 -6 5 -13 17 -23
27 -24z"/>
<path d="M259 358 c-101 -116 -188 -218 -192 -225 -6 -10 8 -13 70 -13 l78 1
118 161 117 160 0 64 c0 35 -2 64 -4 64 -2 0 -86 -95 -187 -212z"/>
</g>
</svg>
