<?xml version="1.0" standalone="no"?>
<!DOCTYPE svg PUBLIC "-//W3C//DTD SVG 20010904//EN"
 "http://www.w3.org/TR/2001/REC-SVG-20010904/DTD/svg10.dtd">
<svg version="1.0" xmlns="http://www.w3.org/2000/svg"
 width="236.000000pt" height="214.000000pt" viewBox="0 0 236.000000 214.000000"
 preserveAspectRatio="xMidYMid meet">

<g transform="translate(0.000000,214.000000) scale(0.100000,-0.100000)"
fill="#000000" stroke="none">
<path d="M1280 2125 c-9 -11 -11 -37 -6 -93 21 -254 21 -238 -7 -266 -32 -31
-55 -33 -109 -5 -45 23 -89 20 -120 -8 -27 -24 -22 -31 28 -39 34 -5 57 -17
97 -53 29 -26 78 -67 110 -90 32 -23 63 -54 69 -69 13 -33 17 -546 5 -704 l-8
-108 155 0 156 0 0 38 c0 72 -30 438 -45 545 -20 143 -19 198 5 292 12 45 20
111 20 156 0 68 3 81 25 107 14 17 35 52 46 77 19 42 19 49 6 62 -13 13 -20 9
-57 -38 -47 -60 -64 -73 -86 -65 -11 4 -14 28 -14 105 0 76 -4 103 -15 115
-28 28 -45 9 -46 -53 0 -75 -12 -140 -22 -123 -5 6 -12 52 -17 101 -12 109
-17 123 -44 119 -20 -3 -21 -8 -20 -110 1 -149 -23 -145 -46 7 -18 111 -32
134 -60 100z"/>
<path d="M226 1721 c-9 -14 12 -158 34 -228 11 -36 20 -76 20 -89 0 -45 -40
-41 -103 12 -33 27 -83 31 -113 10 -18 -14 -17 -16 20 -31 22 -9 90 -62 152
-117 95 -83 114 -105 120 -136 7 -37 -1 -307 -12 -399 l-7 -53 134 0 135 0 -4
43 c-2 23 -12 102 -23 176 -12 75 -18 154 -15 180 3 25 8 67 12 92 4 34 -3 82
-29 190 -20 79 -38 160 -42 179 -4 19 -12 41 -17 47 -20 24 -27 2 -21 -62 4
-46 3 -65 -6 -65 -17 0 -29 33 -49 130 -15 75 -20 85 -40 88 -23 3 -23 2 -17
-45 4 -26 9 -57 12 -68 12 -44 -15 2 -32 55 -25 80 -40 100 -75 100 -16 0 -31
-4 -34 -9z"/>
<path d="M864 1403 c-21 -56 -30 -68 -45 -68 -8 0 -15 13 -17 33 -5 47 -32 43
-32 -5 0 -21 -9 -65 -20 -98 -43 -133 -138 -561 -126 -573 3 -3 41 -7 83 -10
l78 -4 18 178 c9 99 22 199 29 223 13 51 35 67 156 113 45 17 82 35 82 39 0
14 -28 17 -66 8 -78 -17 -81 -10 -25 51 45 50 67 87 58 97 -4 4 -23 -9 -42
-27 -39 -38 -45 -31 -14 19 15 25 17 36 9 45 -9 8 -16 5 -28 -14 -32 -47 -64
-80 -77 -80 -12 0 -12 7 0 41 8 23 15 48 15 55 0 27 -21 13 -36 -23z"/>
<path d="M2085 1272 c6 -65 4 -80 -9 -92 -13 -10 -22 -10 -42 -1 -29 13 -64 6
-64 -13 0 -7 -7 -21 -15 -32 -15 -18 -16 -17 -10 14 5 25 3 32 -9 32 -9 0 -16
-4 -16 -10 0 -20 -42 -120 -51 -120 -5 0 -9 25 -9 56 0 80 -23 67 -30 -16 -6
-75 -23 -88 -46 -35 -23 55 -38 31 -18 -28 12 -37 14 -56 5 -94 -5 -27 -7 -66
-5 -88 4 -26 -2 -60 -15 -97 l-20 -58 63 0 c73 0 71 -2 81 94 9 79 39 123 106
152 21 10 39 21 39 25 0 12 -33 16 -64 7 -16 -4 -32 -6 -34 -3 -3 2 6 28 18
57 13 29 31 72 41 96 l19 43 52 -43 c29 -24 56 -47 61 -53 4 -5 6 -92 5 -193
l-3 -182 68 0 67 0 0 58 c0 31 -5 106 -12 166 -13 119 1 272 28 311 8 11 14
29 14 40 -1 18 -3 17 -23 -7 -33 -40 -45 -35 -49 19 -4 61 -28 71 -28 12 0
-53 -17 -41 -22 15 -2 23 -9 41 -17 44 -11 4 -13 -6 -9 -47 6 -59 -8 -70 -17
-13 -9 53 -13 62 -26 62 -8 0 -9 -22 -4 -78z"/>
<path d="M1043 1119 l7 -34 -19 25 c-36 46 -35 10 3 -76 21 -47 35 -88 33 -90
-2 -3 -17 0 -32 6 -29 11 -65 5 -65 -11 0 -5 10 -9 21 -9 13 0 43 -21 70 -49
39 -38 49 -55 49 -82 0 -19 3 -51 6 -71 l7 -38 63 0 64 0 -19 48 c-21 53 -31
232 -17 290 11 42 -8 43 -23 1 -17 -48 -35 -30 -41 39 -6 77 -24 86 -28 15 -2
-29 -7 -53 -12 -53 -4 0 -17 26 -27 57 -22 65 -50 88 -40 32z"/>
<path d="M798 632 l-798 -2 0 -22 c0 -21 2 -21 107 -15 58 4 587 7 1175 7
l1068 0 0 21 c0 20 -1 20 -377 17 -208 -2 -737 -4 -1175 -6z"/>
<path d="M414 519 c-93 -27 -148 -157 -106 -252 37 -83 125 -110 219 -68 79
36 108 153 62 248 -30 62 -104 93 -175 72z m114 -59 c61 -61 50 -194 -19 -231
-15 -8 -19 -8 -15 0 4 6 3 11 -3 11 -5 0 -13 -4 -16 -10 -12 -20 -57 -10 -85
18 -34 35 -48 103 -30 156 14 43 38 58 88 54 68 -6 106 -107 67 -182 -9 -16
-13 -31 -10 -34 9 -9 35 67 35 102 0 77 -40 126 -104 126 -30 0 -37 3 -26 10
32 21 87 11 118 -20z m-184 -225 c10 -15 13 -24 6 -20 -18 11 -50 86 -49 115
0 16 5 9 13 -22 7 -25 20 -58 30 -73z"/>
<path d="M34 511 c4 -5 2 -11 -2 -13 -10 -3 81 -295 96 -310 5 -5 25 -6 44 -3
35 7 36 8 91 153 30 81 58 155 62 165 5 13 2 17 -13 17 -12 0 -24 -4 -27 -10
-3 -5 -16 -10 -28 -10 -19 0 -27 -14 -56 -100 -18 -55 -37 -98 -41 -95 -4 2
-24 52 -46 110 -34 93 -41 105 -62 105 -13 0 -21 -4 -18 -9z m236 -27 c0 -19
-84 -234 -91 -234 -15 0 -11 20 27 132 23 70 41 108 50 108 8 0 14 -3 14 -6z
m-170 -143 c53 -141 56 -151 41 -151 -8 0 -52 125 -96 270 -19 62 9 3 55 -119z"/>
<path d="M636 498 c-13 -62 -16 -112 -6 -98 7 11 9 -7 9 -60 -1 -60 -3 -68 -9
-40 -6 26 -7 16 -6 -40 l1 -75 60 -3 c76 -4 167 7 160 19 -9 13 2 11 37 -7 23
-12 47 -15 87 -11 97 10 120 55 121 240 0 97 0 97 -25 97 -14 0 -25 -4 -25
-10 0 -5 -7 -10 -15 -10 -12 0 -15 -19 -15 -114 0 -99 -3 -117 -21 -140 -25
-32 -61 -34 -89 -4 -18 20 -20 35 -20 150 0 117 -2 128 -18 128 -10 0 -23 -5
-30 -12 -15 -15 -16 -174 -1 -237 5 -24 8 -46 5 -48 -2 -3 -39 -2 -80 2 l-76
7 0 144 c0 137 -1 144 -20 144 -12 0 -21 -8 -24 -22z m406 -110 c-4 -128 -7
-145 -33 -158 -20 -11 -20 -11 -5 19 12 22 16 59 16 136 0 79 3 105 13 105 10
0 12 -24 9 -102z"/>
<path d="M1133 505 c-9 -10 -13 -59 -13 -170 0 -141 2 -155 18 -155 38 0 41
12 43 149 l1 133 68 -128 c38 -70 66 -133 63 -141 -6 -14 17 -17 55 -7 21 6
22 10 22 140 l0 134 45 0 45 0 0 -140 c0 -131 1 -140 19 -140 50 0 51 4 51
146 l0 134 34 0 c21 0 36 6 40 16 3 8 10 12 16 9 6 -4 10 -66 10 -156 l0 -149
238 1 c130 1 245 3 255 6 14 4 17 16 17 68 l0 64 35 7 c45 8 72 -14 81 -65 4
-20 9 -30 12 -22 3 10 9 7 18 -10 13 -23 13 -22 14 22 0 36 -5 50 -25 69 l-24
23 24 19 c19 15 25 29 25 58 0 52 -8 68 -41 85 -36 19 -165 21 -172 3 -4 -10
-6 -10 -6 0 -1 17 -207 17 -215 0 -5 -10 -7 -10 -12 0 -8 17 -498 17 -537 0
-26 -13 -27 -15 -27 -108 l-1 -95 -57 107 c-49 93 -60 108 -82 107 -14 0 -31
-6 -37 -14z m217 -135 c0 -66 -4 -120 -9 -120 -16 0 -21 31 -21 136 0 86 3
104 15 104 13 0 15 -20 15 -120z m158 -32 c2 -97 -1 -148 -8 -148 -6 0 -10 51
-10 140 l0 140 -51 0 c-32 0 -48 4 -44 10 4 6 30 10 58 8 l52 -3 3 -147z m102
142 c0 -5 -14 -10 -31 -10 -17 0 -28 4 -24 10 3 6 17 10 31 10 13 0 24 -4 24
-10z m200 0 c0 -5 -22 -10 -50 -10 -27 0 -50 5 -50 10 0 6 23 10 50 10 28 0
50 -4 50 -10z m60 -125 l0 -135 -34 0 c-18 0 -54 3 -80 6 l-46 7 0 48 0 49 55
0 c30 0 55 5 55 10 0 6 9 10 20 10 11 0 20 7 20 15 0 12 -15 15 -75 15 l-75 0
0 40 0 40 54 0 c39 0 55 4 60 15 3 8 15 15 26 15 19 0 20 -6 20 -135z m165
125 c4 -6 -15 -10 -49 -10 -31 0 -56 5 -56 10 0 6 22 10 49 10 28 0 53 -4 56
-10z m60 -125 c0 -149 6 -142 -101 -130 l-64 7 0 49 0 49 55 0 c30 0 55 5 55
10 0 6 11 10 25 10 16 0 25 6 25 15 0 12 -16 15 -80 15 l-80 0 0 40 0 40 60 0
c48 0 60 3 60 16 0 10 7 14 23 12 22 -3 22 -6 22 -133z m172 109 c17 -24 16
-56 -3 -80 -15 -18 -15 -18 -9 11 l6 30 -20 -32 c-16 -25 -28 -33 -51 -33 -29
0 -30 1 -30 50 0 48 1 50 27 50 14 0 35 -7 45 -17 10 -9 18 -11 18 -5 0 15
-33 32 -64 32 -14 0 -26 5 -26 11 0 19 92 4 107 -17z m-1130 -186 c-1 -40 -3
-10 -3 67 0 77 1 110 3 73 2 -37 2 -100 0 -140z m750 0 c-1 -40 -3 -10 -3 67
0 77 1 110 3 73 2 -37 2 -100 0 -140z m-104 65 c-13 -2 -35 -2 -50 0 -16 2 -5
4 22 4 28 0 40 -2 28 -4z m225 0 c-16 -2 -40 -2 -55 0 -16 2 -3 4 27 4 30 0
43 -2 28 -4z"/>
<path d="M1190 385 c0 -8 112 -185 117 -185 5 0 8 -4 -57 103 -49 80 -60 95
-60 82z"/>
<path d="M2205 307 c11 -9 27 -39 35 -69 14 -45 20 -53 42 -56 23 -3 26 0 20
20 -5 18 -7 20 -10 6 -7 -36 -28 -16 -47 45 -15 46 -25 63 -40 65 l-20 4 20
-15z"/>
<path d="M10 18 l0 -21 602 6 c331 4 859 7 1175 7 503 0 573 2 573 15 0 13
-137 15 -1175 15 l-1175 0 0 -22z"/>
</g>
</svg>
