<?xml version="1.0" standalone="no"?>
<!DOCTYPE svg PUBLIC "-//W3C//DTD SVG 20010904//EN"
 "http://www.w3.org/TR/2001/REC-SVG-20010904/DTD/svg10.dtd">
<svg version="1.0" xmlns="http://www.w3.org/2000/svg"
 width="234.000000pt" height="215.000000pt" viewBox="0 0 234.000000 215.000000"
 preserveAspectRatio="xMidYMid meet">

<g transform="translate(0.000000,215.000000) scale(0.100000,-0.100000)"
fill="#000000" stroke="none">
<path d="M544 2099 c-67 -19 -127 -71 -162 -139 -32 -61 -34 -70 -30 -140 6
-91 29 -142 92 -197 48 -43 126 -73 185 -73 48 1 131 30 168 60 125 102 142
286 38 409 -43 50 -137 91 -205 90 -30 0 -69 -5 -86 -10z"/>
<path d="M1530 2093 c-67 -25 -142 -104 -164 -177 -41 -131 18 -272 137 -330
72 -36 131 -42 200 -22 199 58 271 296 136 450 -23 26 -60 56 -83 68 -55 28
-164 34 -226 11z"/>
<path d="M1085 1719 c-64 -12 -92 -26 -139 -69 -63 -58 -90 -118 -90 -205 0
-56 5 -80 26 -120 53 -102 138 -155 248 -154 75 1 112 12 172 55 96 68 135
218 86 325 -34 75 -70 114 -131 143 -59 28 -114 36 -172 25z"/>
<path d="M308 1595 c-87 -58 -151 -133 -197 -230 -77 -160 -88 -272 -37 -360
37 -62 126 -139 210 -181 72 -35 204 -76 219 -67 4 2 7 18 7 34 0 46 46 174
84 232 40 64 136 153 215 202 l59 37 -26 56 c-33 74 -35 175 -4 245 l21 47
-33 -25 c-130 -99 -309 -91 -418 18 l-36 35 -64 -43z"/>
<path d="M1854 1609 c-43 -45 -101 -76 -170 -89 -51 -10 -71 -9 -125 4 -35 9
-82 29 -104 44 l-41 29 19 -56 c25 -73 19 -162 -15 -231 l-25 -50 36 -22 c70
-42 171 -129 212 -183 38 -51 41 -53 72 -44 18 5 72 9 122 9 70 0 105 -6 160
-26 39 -13 77 -27 87 -30 22 -8 88 60 118 121 l23 48 -22 76 c-32 114 -95 231
-163 306 -50 54 -135 125 -150 125 -3 0 -17 -14 -34 -31z"/>
<path d="M809 1179 c-94 -65 -131 -100 -180 -173 -50 -75 -80 -172 -81 -261
-2 -97 22 -163 82 -228 94 -102 216 -146 436 -154 78 -3 170 -2 207 1 l65 7
-9 32 c-14 49 -11 176 6 242 9 32 28 81 43 109 36 68 145 177 210 210 l53 27
-20 27 c-32 45 -133 136 -194 176 l-58 37 -31 -26 c-55 -47 -109 -68 -185 -73
-85 -5 -143 11 -212 63 -27 19 -51 35 -53 35 -2 0 -38 -23 -79 -51z"/>
</g>
</svg>
