<?xml version="1.0" standalone="no"?>
<!DOCTYPE svg PUBLIC "-//W3C//DTD SVG 20010904//EN"
 "http://www.w3.org/TR/2001/REC-SVG-20010904/DTD/svg10.dtd">
<svg version="1.0" xmlns="http://www.w3.org/2000/svg"
 width="200.000000pt" height="200.000000pt" viewBox="0 0 200.000000 200.000000"
 preserveAspectRatio="xMidYMid meet">

<g transform="translate(0.000000,200.000000) scale(0.100000,-0.100000)"
fill="#000000" stroke="none">
<path d="M1140 1695 c0 -14 7 -42 15 -62 8 -19 15 -39 15 -43 0 -4 -51 -5
-112 -2 -127 5 -199 -8 -303 -56 l-60 -28 -30 50 c-79 131 -270 126 -335 -8
-34 -71 -21 -167 30 -221 20 -21 20 -21 -33 -56 -64 -42 -111 -111 -128 -185
-21 -93 -36 -89 296 -92 216 -2 291 1 302 10 11 9 14 25 10 59 -11 88 -72 178
-154 225 -31 17 -32 19 -15 37 9 10 28 40 42 65 20 38 37 53 90 80 88 44 195
66 290 58 41 -3 78 -10 82 -14 4 -4 -22 -18 -57 -31 -56 -19 -65 -26 -65 -47
0 -33 23 -31 142 12 80 30 98 40 98 57 0 11 -16 64 -37 119 -32 86 -39 98 -60
98 -18 0 -23 -5 -23 -25z m-543 -149 c27 -30 33 -44 33 -82 0 -84 -50 -134
-135 -134 -42 0 -52 5 -86 39 -33 32 -39 45 -39 80 0 89 59 145 144 138 42 -4
55 -10 83 -41z m-36 -290 c80 -14 164 -95 184 -178 l7 -28 -244 0 c-135 0
-247 3 -250 6 -4 3 0 25 9 49 16 48 67 106 114 131 34 17 106 33 129 29 8 -2
31 -6 51 -9z"/>
<path d="M1431 1640 c-85 -36 -125 -102 -119 -196 3 -52 9 -70 35 -102 l32
-39 -25 -11 c-41 -19 -109 -88 -132 -135 -28 -57 -39 -131 -22 -152 10 -12 44
-15 197 -15 l185 0 -6 -57 c-15 -124 -62 -238 -131 -318 l-34 -40 2 65 c2 59
0 65 -19 68 -26 4 -27 2 -49 -126 -16 -89 -16 -105 -4 -116 8 -7 60 -21 117
-31 81 -13 105 -15 117 -5 28 24 1 46 -74 59 l-71 13 49 55 c88 98 147 234
158 360 l6 72 75 3 c93 4 101 12 83 92 -16 74 -64 143 -127 185 l-52 34 32 44
c27 39 31 53 31 112 0 77 -22 120 -83 161 -38 27 -130 37 -171 20z m136 -70
c109 -66 64 -240 -62 -240 -88 0 -135 47 -135 134 0 48 33 100 74 116 36 15
90 11 123 -10z m30 -326 c66 -24 143 -117 143 -175 0 -18 -9 -19 -246 -19
l-246 0 6 28 c13 50 61 116 107 144 75 47 147 53 236 22z"/>
<path d="M358 884 c-73 -87 -90 -121 -68 -134 23 -15 26 -13 74 46 28 34 48
51 50 42 3 -7 12 -36 20 -63 37 -117 143 -253 248 -320 46 -29 48 -31 41 -65
-4 -19 -8 -51 -8 -70 l0 -35 305 0 305 0 3 28 c9 79 -57 191 -145 247 -38 24
-41 29 -27 41 30 24 54 87 54 139 0 111 -79 190 -190 190 -67 0 -123 -29 -157
-82 -24 -35 -28 -52 -28 -109 0 -59 4 -73 31 -112 l31 -44 -32 -18 c-18 -9
-48 -32 -66 -51 -27 -28 -35 -31 -53 -22 -54 27 -132 97 -172 154 -44 62 -98
177 -92 196 2 5 24 -7 50 -27 48 -38 80 -42 86 -13 3 17 -162 158 -185 158 -7
0 -41 -34 -75 -76z m753 -53 c35 -35 39 -44 39 -91 0 -48 -4 -56 -40 -92 -39
-39 -42 -40 -96 -36 -46 4 -61 10 -87 37 -29 28 -32 37 -32 92 0 57 2 62 37
95 33 29 45 34 89 34 46 0 55 -4 90 -39z m-15 -296 c81 -24 142 -86 168 -172
l7 -23 -250 0 -250 0 9 32 c28 97 131 173 241 177 14 1 48 -6 75 -14z"/>
</g>
</svg>
